%TF.GenerationSoftware,KiCad,Pcbnew,(6.0.9)*%
%TF.CreationDate,2023-01-03T08:50:54+01:00*%
%TF.ProjectId,Heatbed-MK52_v2,48656174-6265-4642-9d4d-4b35325f7632,rev?*%
%TF.SameCoordinates,Original*%
%TF.FileFunction,Copper,L1,Top*%
%TF.FilePolarity,Positive*%
%FSLAX46Y46*%
G04 Gerber Fmt 4.6, Leading zero omitted, Abs format (unit mm)*
G04 Created by KiCad (PCBNEW (6.0.9)) date 2023-01-03 08:50:54*
%MOMM*%
%LPD*%
G01*
G04 APERTURE LIST*
%TA.AperFunction,SMDPad,CuDef*%
%ADD10R,2.198880X1.198880*%
%TD*%
%TA.AperFunction,ComponentPad*%
%ADD11R,8.000000X10.000000*%
%TD*%
%TA.AperFunction,SMDPad,CuDef*%
%ADD12R,2.000000X1.300000*%
%TD*%
%TA.AperFunction,SMDPad,CuDef*%
%ADD13C,8.000000*%
%TD*%
%TA.AperFunction,Conductor*%
%ADD14C,1.820200*%
%TD*%
%TA.AperFunction,Conductor*%
%ADD15C,1.316500*%
%TD*%
%TA.AperFunction,Conductor*%
%ADD16C,0.500000*%
%TD*%
%TA.AperFunction,Conductor*%
%ADD17C,3.000000*%
%TD*%
G04 APERTURE END LIST*
D10*
%TO.P,D1,1*%
%TO.N,Net-(D1-Pad1)*%
X23400980Y422525000D03*
%TO.P,D1,2*%
%TO.N,Net-(D1-Pad2)*%
X26399020Y422525000D03*
%TD*%
D11*
%TO.P,VCC,1*%
%TO.N,Net-(D1-Pad1)*%
X33450000Y427025000D03*
%TD*%
%TO.P,GND,1*%
%TO.N,Net-(D1-Pad1)*%
X16450000Y427025000D03*
%TD*%
D12*
%TO.P,R1,1*%
%TO.N,Net-(D1-Pad1)*%
X26550000Y432525000D03*
%TO.P,R1,2*%
%TO.N,Net-(D1-Pad2)*%
X23350000Y432525000D03*
%TD*%
D13*
%TO.P,,4*%
%TO.N,N/C*%
X268625000Y130675000D03*
%TD*%
%TO.P,,3*%
%TO.N,N/C*%
X43975000Y130675000D03*
%TD*%
%TO.P,,2*%
%TO.N,N/C*%
X268625000Y385400000D03*
%TD*%
%TO.P,,1*%
%TO.N,N/C*%
X44125000Y385400000D03*
%TD*%
D14*
%TO.N,Net-(D1-Pad1)*%
X30150000Y391550000D02*
X30200000Y391550000D01*
X28125000Y394050000D02*
X28125000Y393575000D01*
X28125000Y393575000D02*
X30150000Y391550000D01*
X30215000Y389225000D02*
X32500000Y389225000D01*
X30200000Y389240000D02*
X30215000Y389225000D01*
X30200000Y391525000D02*
X30200000Y389240000D01*
X32525000Y390215000D02*
X32525000Y389200000D01*
X34160000Y391850000D02*
X32525000Y390215000D01*
X34850000Y391160000D02*
X34160000Y391850000D01*
X32450000Y351025000D02*
X34850000Y351025000D01*
X32450000Y387125000D02*
X32450000Y351025000D01*
X34850000Y351025000D02*
X34850000Y391160000D01*
X30050000Y387125000D02*
X32450000Y387125000D01*
X27665000Y404660000D02*
X27650000Y404675000D01*
X30035000Y404660000D02*
X27665000Y404660000D01*
X30050000Y404675000D02*
X30035000Y404660000D01*
X190850000Y351025000D02*
X193250000Y351025000D01*
X190850000Y417025000D02*
X190850000Y351025000D01*
X188450000Y417025000D02*
X190850000Y417025000D01*
X188450000Y351025000D02*
X188450000Y417025000D01*
X186050000Y351025000D02*
X188450000Y351025000D01*
X186050000Y417025000D02*
X186050000Y351025000D01*
X181250000Y417025000D02*
X181250000Y351025000D01*
X178850000Y417025000D02*
X181250000Y417025000D01*
X178850000Y351025000D02*
X178850000Y417025000D01*
X176450000Y417025000D02*
X176450000Y351025000D01*
X174050000Y417025000D02*
X176450000Y417025000D01*
X171650000Y417025000D02*
X171650000Y351025000D01*
X169250000Y417025000D02*
X171650000Y417025000D01*
X169250000Y351025000D02*
X169250000Y417025000D01*
X166850000Y351025000D02*
X169250000Y351025000D01*
X166850000Y417025000D02*
X166850000Y351025000D01*
X164570000Y417025000D02*
X166850000Y417025000D01*
X164570000Y351025000D02*
X164570000Y417025000D01*
X162050000Y351025000D02*
X164570000Y351025000D01*
X162175000Y351150000D02*
X162050000Y351025000D01*
X162175000Y388825000D02*
X162175000Y351150000D01*
X159775000Y388825000D02*
X162175000Y388825000D01*
X159775000Y351150000D02*
X159775000Y388825000D01*
X159650000Y351025000D02*
X159775000Y351150000D01*
X157250000Y351025000D02*
X159650000Y351025000D01*
X157250000Y388700000D02*
X157250000Y351025000D01*
X157375000Y388825000D02*
X157250000Y388700000D01*
X154975000Y351150000D02*
X154975000Y388825000D01*
X154850000Y351025000D02*
X154975000Y351150000D01*
X152450000Y351025000D02*
X154850000Y351025000D01*
X183650000Y417025000D02*
X186050000Y417025000D01*
X152450000Y391300000D02*
X152450000Y351025000D01*
X160050000Y391300000D02*
X152450000Y391300000D01*
X162300000Y393550000D02*
X160050000Y391300000D01*
X162300000Y417025000D02*
X162300000Y393550000D01*
X159650000Y403950000D02*
X159650000Y417025000D01*
X159575000Y403875000D02*
X159650000Y403950000D01*
X157175000Y403875000D02*
X159575000Y403875000D01*
X157250000Y403950000D02*
X157175000Y403875000D01*
X157250000Y417025000D02*
X157250000Y403950000D01*
X154850000Y417025000D02*
X157250000Y417025000D01*
X154850000Y403950000D02*
X154850000Y417025000D01*
X154775000Y403875000D02*
X154850000Y403950000D01*
X152375000Y403875000D02*
X154775000Y403875000D01*
X152450000Y403950000D02*
X152375000Y403875000D01*
X152450000Y417025000D02*
X152450000Y403950000D01*
X150050000Y417025000D02*
X152450000Y417025000D01*
X150050000Y351025000D02*
X150050000Y417025000D01*
X147650000Y351025000D02*
X150050000Y351025000D01*
X147650000Y417025000D02*
X147650000Y351025000D01*
X145250000Y417025000D02*
X147650000Y417025000D01*
X145250000Y351025000D02*
X145250000Y417025000D01*
X142850000Y417025000D02*
X142850000Y351025000D01*
X138050000Y351025000D02*
X140450000Y351025000D01*
X138050000Y417025000D02*
X138050000Y351025000D01*
X135650000Y417025000D02*
X138050000Y417025000D01*
X133250000Y351025000D02*
X135650000Y351025000D01*
X133250000Y417025000D02*
X133250000Y351025000D01*
X130850000Y417025000D02*
X133250000Y417025000D01*
X130850000Y351025000D02*
X130850000Y417025000D01*
X128450000Y351025000D02*
X130850000Y351025000D01*
X126050000Y351025000D02*
X126050000Y417025000D01*
X123650000Y351025000D02*
X126050000Y351025000D01*
X121250000Y417025000D02*
X123650000Y417025000D01*
X126050000Y417025000D02*
X128450000Y417025000D01*
X121250000Y351025000D02*
X121250000Y417025000D01*
X118850000Y351025000D02*
X121250000Y351025000D01*
X128450000Y417025000D02*
X128450000Y351025000D01*
X118850000Y417025000D02*
X118850000Y351025000D01*
X116450000Y417025000D02*
X118850000Y417025000D01*
X114050000Y351025000D02*
X116450000Y351025000D01*
X176450000Y351025000D02*
X178850000Y351025000D01*
X114050000Y417025000D02*
X114050000Y351025000D01*
X109250000Y351025000D02*
X111650000Y351025000D01*
X106850000Y417025000D02*
X109250000Y417025000D01*
X106850000Y351025000D02*
X106850000Y417025000D01*
X111650000Y417025000D02*
X114050000Y417025000D01*
X104450000Y351025000D02*
X106850000Y351025000D01*
X104450000Y417025000D02*
X104450000Y351025000D01*
X102050000Y417025000D02*
X104450000Y417025000D01*
X102050000Y351025000D02*
X102050000Y417025000D01*
X111650000Y351025000D02*
X111650000Y417025000D01*
X99650000Y351025000D02*
X102050000Y351025000D01*
X123650000Y417025000D02*
X123650000Y351025000D01*
X99650000Y417025000D02*
X99650000Y351025000D01*
X97250000Y417025000D02*
X99650000Y417025000D01*
X97250000Y351025000D02*
X97250000Y417025000D01*
X116450000Y351025000D02*
X116450000Y417025000D01*
X94850000Y351025000D02*
X97250000Y351025000D01*
X94850000Y414674000D02*
X94850000Y351025000D01*
X142850000Y351025000D02*
X145250000Y351025000D01*
X92450000Y412274000D02*
X94850000Y414674000D01*
X92450000Y351025000D02*
X92450000Y412274000D01*
X174050000Y351025000D02*
X174050000Y417025000D01*
X90050000Y351025000D02*
X92450000Y351025000D01*
X181250000Y351025000D02*
X183650000Y351025000D01*
X90050000Y410636000D02*
X90050000Y351025000D01*
X87650000Y408236000D02*
X90050000Y410636000D01*
X87650000Y351025000D02*
X87650000Y408236000D01*
X85250000Y351025000D02*
X87650000Y351025000D01*
X85250000Y408272000D02*
X85250000Y351025000D01*
X82850000Y351025000D02*
X82850000Y410672000D01*
X140450000Y351025000D02*
X140450000Y417025000D01*
X80450000Y351025000D02*
X82850000Y351025000D01*
X80450000Y413054000D02*
X80450000Y351025000D01*
X78050000Y415454000D02*
X80450000Y413054000D01*
X78050000Y351025000D02*
X78050000Y415454000D01*
X109250000Y417025000D02*
X109250000Y351025000D01*
X75650000Y351025000D02*
X78050000Y351025000D01*
X73250000Y417025000D02*
X75650000Y417025000D01*
X154975000Y388825000D02*
X157375000Y388825000D01*
X82850000Y410672000D02*
X85250000Y408272000D01*
X70825000Y417225000D02*
X70850000Y417200000D01*
X70850000Y417200000D02*
X70850000Y351025000D01*
X140450000Y417025000D02*
X142850000Y417025000D01*
X171650000Y351025000D02*
X174050000Y351025000D01*
X68425000Y417225000D02*
X70825000Y417225000D01*
X135650000Y351025000D02*
X135650000Y417025000D01*
X70850000Y351025000D02*
X73250000Y351025000D01*
X159650000Y417025000D02*
X162300000Y417025000D01*
X73250000Y351025000D02*
X73250000Y417025000D01*
X75650000Y417025000D02*
X75650000Y351025000D01*
X183650000Y351025000D02*
X183650000Y417025000D01*
X289075000Y351200000D02*
X289075000Y417125000D01*
X289150000Y351125000D02*
X289075000Y351200000D01*
X286750000Y351125000D02*
X289150000Y351125000D01*
X286960000Y351335000D02*
X286750000Y351125000D01*
X286960000Y417125000D02*
X286960000Y351335000D01*
X284350000Y417125000D02*
X286960000Y417125000D01*
X284375000Y417100000D02*
X284350000Y417125000D01*
X284375000Y408150000D02*
X284375000Y417100000D01*
X281975000Y408150000D02*
X284375000Y408150000D01*
X279550000Y408175000D02*
X279550000Y417125000D01*
X279550000Y417125000D02*
X281950000Y417125000D01*
X279600000Y408125000D02*
X279550000Y408175000D01*
X277200000Y417075000D02*
X277200000Y408125000D01*
X281950000Y417125000D02*
X281975000Y417100000D01*
X274750000Y417125000D02*
X277150000Y417125000D01*
X277150000Y417125000D02*
X277200000Y417075000D01*
X277200000Y408125000D02*
X279600000Y408125000D01*
X281975000Y417100000D02*
X281975000Y408150000D01*
X279550000Y383950000D02*
X279575000Y383925000D01*
X279550000Y392025000D02*
X279550000Y383950000D01*
X284860000Y351125000D02*
X281950000Y351125000D01*
X281950000Y351125000D02*
X281950000Y394350000D01*
X284860000Y405215000D02*
X284860000Y351125000D01*
X281875000Y394350000D02*
X279550000Y392025000D01*
X274750000Y405850000D02*
X284225000Y405850000D01*
X281950000Y394350000D02*
X281875000Y394350000D01*
X274750000Y417125000D02*
X274750000Y405850000D01*
X284225000Y405850000D02*
X284860000Y405215000D01*
X275425000Y391000000D02*
X277425000Y391000000D01*
X277425000Y391000000D02*
X277425000Y391315000D01*
X277425000Y391315000D02*
X274215000Y394525000D01*
X274215000Y394525000D02*
X272325000Y394525000D01*
D15*
X275185000Y265220000D02*
X276760000Y265220000D01*
X275175000Y265230000D02*
X275185000Y265220000D01*
X275175000Y298725000D02*
X275175000Y265230000D01*
X275150000Y298750000D02*
X275175000Y298725000D01*
X273550000Y298750000D02*
X275150000Y298750000D01*
X273550000Y265800000D02*
X273550000Y298750000D01*
X271950000Y264200000D02*
X273550000Y265800000D01*
X270350000Y298750000D02*
X271950000Y298750000D01*
X270470000Y261530000D02*
X270350000Y261650000D01*
X270350000Y261650000D02*
X270350000Y298750000D01*
X272630000Y261530000D02*
X270470000Y261530000D01*
X274510000Y263410000D02*
X272630000Y261530000D01*
X281575000Y260725000D02*
X281575000Y263410000D01*
X281575000Y263410000D02*
X274510000Y263410000D01*
X271950000Y298750000D02*
X271950000Y264200000D01*
X281550000Y265170000D02*
X283140000Y265170000D01*
X281530000Y265150000D02*
X281550000Y265170000D01*
X283150000Y265180000D02*
X283150000Y298750000D01*
X283140000Y265170000D02*
X283150000Y265180000D01*
X281550000Y298750000D02*
X281550000Y265150000D01*
X279950000Y298750000D02*
X281550000Y298750000D01*
X279950000Y265200000D02*
X279950000Y298750000D01*
X279880000Y265130000D02*
X279950000Y265200000D01*
X278375000Y298725000D02*
X278375000Y265130000D01*
X276750000Y298750000D02*
X278350000Y298750000D01*
X276750000Y265230000D02*
X276750000Y298750000D01*
X276740000Y265220000D02*
X276750000Y265230000D01*
X278375000Y265130000D02*
X279880000Y265130000D01*
X278350000Y298750000D02*
X278375000Y298725000D01*
X11250000Y297425000D02*
X10150000Y298525000D01*
X11250000Y249825000D02*
X11250000Y297425000D01*
X12850000Y249825000D02*
X11250000Y249825000D01*
X12850000Y298625000D02*
X12850000Y249825000D01*
X14450000Y298625000D02*
X12850000Y298625000D01*
X14450000Y249825000D02*
X14450000Y298625000D01*
X16050000Y249825000D02*
X14450000Y249825000D01*
X16050000Y298625000D02*
X16050000Y249825000D01*
X17650000Y298625000D02*
X16050000Y298625000D01*
X17650000Y249825000D02*
X17650000Y298625000D01*
X19250000Y249825000D02*
X17650000Y249825000D01*
X19250000Y298625000D02*
X19250000Y249825000D01*
X20850000Y298625000D02*
X19250000Y298625000D01*
X20850000Y249825000D02*
X20850000Y298625000D01*
X22450000Y298625000D02*
X22450000Y249825000D01*
X25650000Y249825000D02*
X24050000Y249825000D01*
X25650000Y298625000D02*
X25650000Y249825000D01*
X27250000Y298625000D02*
X25650000Y298625000D01*
X27250000Y249825000D02*
X27250000Y298625000D01*
X28850000Y249825000D02*
X27250000Y249825000D01*
X30450000Y249825000D02*
X30450000Y298625000D01*
X32050000Y249825000D02*
X30450000Y249825000D01*
X32050000Y251656800D02*
X32050000Y249825000D01*
X33650000Y249825000D02*
X33650000Y251656800D01*
X35250000Y249825000D02*
X33650000Y249825000D01*
X35250000Y251656800D02*
X35250000Y249825000D01*
X38450000Y249825000D02*
X36850000Y249825000D01*
X38450000Y251656800D02*
X38450000Y249825000D01*
X40050000Y251656800D02*
X38450000Y251656800D01*
X40050000Y249825000D02*
X40050000Y251656800D01*
X41650000Y260375000D02*
X41650000Y249825000D01*
X39725000Y262300000D02*
X41650000Y260375000D01*
X32050000Y262300000D02*
X39725000Y262300000D01*
X33650000Y298625000D02*
X32050000Y298625000D01*
X33650000Y263825000D02*
X33650000Y298625000D01*
X35250000Y298625000D02*
X35250000Y263825000D01*
X36850000Y263825000D02*
X36850000Y298625000D01*
X38450000Y263825000D02*
X36850000Y263825000D01*
X40050000Y298625000D02*
X38450000Y298625000D01*
X40050000Y263825000D02*
X40050000Y298625000D01*
X41650000Y265425000D02*
X40050000Y263825000D01*
X43250000Y249825000D02*
X43250000Y298625000D01*
X44850000Y298625000D02*
X44850000Y249825000D01*
X46450000Y298625000D02*
X44850000Y298625000D01*
X46450000Y249825000D02*
X46450000Y298625000D01*
X49650000Y298625000D02*
X48050000Y298625000D01*
X49650000Y249825000D02*
X49650000Y298625000D01*
X51250000Y249825000D02*
X49650000Y249825000D01*
X51250000Y298625000D02*
X51250000Y249825000D01*
X52850000Y298625000D02*
X51250000Y298625000D01*
X52850000Y249825000D02*
X52850000Y298625000D01*
X54450000Y249825000D02*
X52850000Y249825000D01*
X54450000Y298625000D02*
X54450000Y249825000D01*
X56050000Y298625000D02*
X54450000Y298625000D01*
X56050000Y249825000D02*
X56050000Y298625000D01*
X57650000Y249825000D02*
X56050000Y249825000D01*
X59250000Y298625000D02*
X57650000Y298625000D01*
X59250000Y249825000D02*
X59250000Y298625000D01*
X60850000Y249825000D02*
X59250000Y249825000D01*
X28850000Y298625000D02*
X28850000Y249825000D01*
X60850000Y298625000D02*
X60850000Y249825000D01*
X62450000Y298625000D02*
X60850000Y298625000D01*
X62450000Y249825000D02*
X62450000Y298625000D01*
X64050000Y249825000D02*
X62450000Y249825000D01*
X64050000Y298625000D02*
X64050000Y249825000D01*
X65650000Y249825000D02*
X65650000Y298625000D01*
X67250000Y249825000D02*
X65650000Y249825000D01*
X67250000Y298625000D02*
X67250000Y249825000D01*
X68850000Y298625000D02*
X67250000Y298625000D01*
X70450000Y249825000D02*
X68850000Y249825000D01*
X70450000Y298625000D02*
X70450000Y249825000D01*
X72050000Y298625000D02*
X70450000Y298625000D01*
X72050000Y249825000D02*
X72050000Y298625000D01*
X73650000Y249825000D02*
X72050000Y249825000D01*
X75250000Y298625000D02*
X73650000Y298625000D01*
X76850000Y249825000D02*
X75250000Y249825000D01*
X41650000Y298625000D02*
X41650000Y265425000D01*
X76850000Y298625000D02*
X76850000Y249825000D01*
X78450000Y298625000D02*
X76850000Y298625000D01*
X78450000Y249825000D02*
X78450000Y298625000D01*
X80050000Y298625000D02*
X80050000Y249825000D01*
X81650000Y249825000D02*
X81650000Y298625000D01*
X83250000Y298625000D02*
X83250000Y249825000D01*
X84850000Y298625000D02*
X83250000Y298625000D01*
X32050000Y298625000D02*
X32050000Y262300000D01*
X84850000Y249825000D02*
X84850000Y298625000D01*
X86450000Y249825000D02*
X84850000Y249825000D01*
X86450000Y298625000D02*
X86450000Y249825000D01*
X88050000Y298625000D02*
X86450000Y298625000D01*
X41650000Y249825000D02*
X40050000Y249825000D01*
X88050000Y249825000D02*
X88050000Y298625000D01*
X89650000Y249825000D02*
X88050000Y249825000D01*
X89650000Y298625000D02*
X89650000Y249825000D01*
X36850000Y249825000D02*
X36850000Y251656800D01*
X91250000Y298625000D02*
X89650000Y298625000D01*
X73650000Y298625000D02*
X73650000Y249825000D01*
X91250000Y249825000D02*
X91250000Y298625000D01*
X92850000Y249825000D02*
X91250000Y249825000D01*
X33650000Y251656800D02*
X32050000Y251656800D01*
X92850000Y298625000D02*
X92850000Y249825000D01*
X94450000Y298625000D02*
X92850000Y298625000D01*
X96050000Y249825000D02*
X94450000Y249825000D01*
X96050000Y298625000D02*
X96050000Y249825000D01*
X99250000Y249825000D02*
X97650000Y249825000D01*
X38450000Y298625000D02*
X38450000Y263825000D01*
X99250000Y298625000D02*
X99250000Y249825000D01*
X65650000Y298625000D02*
X64050000Y298625000D01*
X100850000Y298625000D02*
X99250000Y298625000D01*
X30450000Y298625000D02*
X28850000Y298625000D01*
X100850000Y249825000D02*
X100850000Y298625000D01*
X24050000Y298625000D02*
X22450000Y298625000D01*
X102450000Y249825000D02*
X100850000Y249825000D01*
X102450000Y298625000D02*
X102450000Y249825000D01*
X104050000Y298625000D02*
X102450000Y298625000D01*
X104050000Y249825000D02*
X104050000Y298625000D01*
X105650000Y249825000D02*
X104050000Y249825000D01*
X105650000Y298625000D02*
X105650000Y249825000D01*
X107250000Y298625000D02*
X105650000Y298625000D01*
X48050000Y249825000D02*
X46450000Y249825000D01*
X107250000Y249825000D02*
X107250000Y298625000D01*
X108850000Y249825000D02*
X107250000Y249825000D01*
X108850000Y298625000D02*
X108850000Y249825000D01*
X110450000Y298625000D02*
X108850000Y298625000D01*
X110450000Y249825000D02*
X110450000Y298625000D01*
X112050000Y249825000D02*
X110450000Y249825000D01*
X112050000Y298625000D02*
X112050000Y249825000D01*
X113650000Y298625000D02*
X112050000Y298625000D01*
X113650000Y249825000D02*
X113650000Y298625000D01*
X68850000Y249825000D02*
X68850000Y298625000D01*
X115250000Y249825000D02*
X113650000Y249825000D01*
X36850000Y298625000D02*
X35250000Y298625000D01*
X118450000Y249825000D02*
X116850000Y249825000D01*
X118450000Y298625000D02*
X118450000Y249825000D01*
X120050000Y298625000D02*
X118450000Y298625000D01*
X36850000Y251656800D02*
X35250000Y251656800D01*
X121650000Y249825000D02*
X120050000Y249825000D01*
X121650000Y298625000D02*
X121650000Y249825000D01*
X123250000Y298625000D02*
X121650000Y298625000D01*
X124850000Y298625000D02*
X124850000Y249825000D01*
X126450000Y298625000D02*
X124850000Y298625000D01*
X75250000Y249825000D02*
X75250000Y298625000D01*
X128050000Y249825000D02*
X126450000Y249825000D01*
X116850000Y298625000D02*
X115250000Y298625000D01*
X129650000Y249825000D02*
X129650000Y298625000D01*
X134450000Y298625000D02*
X134450000Y249825000D01*
X136050000Y298625000D02*
X134450000Y298625000D01*
X136050000Y249825000D02*
X136050000Y298625000D01*
X137650000Y249825000D02*
X136050000Y249825000D01*
X139250000Y298625000D02*
X137650000Y298625000D01*
X57650000Y298625000D02*
X57650000Y249825000D01*
X139250000Y249825000D02*
X139250000Y298625000D01*
X35250000Y263825000D02*
X33650000Y263825000D01*
X140850000Y249825000D02*
X139250000Y249825000D01*
X142450000Y298625000D02*
X140850000Y298625000D01*
X123250000Y249825000D02*
X123250000Y298625000D01*
X142450000Y249825000D02*
X142450000Y298625000D01*
X144050000Y298625000D02*
X144050000Y249825000D01*
X131250000Y298625000D02*
X131250000Y249825000D01*
X145650000Y249825000D02*
X145650000Y298625000D01*
X80050000Y249825000D02*
X78450000Y249825000D01*
X147250000Y249825000D02*
X145650000Y249825000D01*
X134450000Y249825000D02*
X132850000Y249825000D01*
X145650000Y298625000D02*
X144050000Y298625000D01*
X147250000Y298625000D02*
X147250000Y249825000D01*
X97650000Y298625000D02*
X96050000Y298625000D01*
X131250000Y249825000D02*
X129650000Y249825000D01*
X132850000Y249825000D02*
X132850000Y298625000D01*
X148850000Y298625000D02*
X147250000Y298625000D01*
X148850000Y249825000D02*
X148850000Y298625000D01*
X83250000Y249825000D02*
X81650000Y249825000D01*
X132850000Y298625000D02*
X131250000Y298625000D01*
X150450000Y249825000D02*
X148850000Y249825000D01*
X22450000Y249825000D02*
X20850000Y249825000D01*
X150450000Y254160000D02*
X150450000Y249825000D01*
X43250000Y298625000D02*
X41650000Y298625000D01*
X126450000Y249825000D02*
X126450000Y298625000D01*
X152050000Y252560000D02*
X150450000Y254160000D01*
X116850000Y249825000D02*
X116850000Y298625000D01*
X48050000Y298625000D02*
X48050000Y249825000D01*
X152050000Y249825000D02*
X152050000Y252560000D01*
X140850000Y298625000D02*
X140850000Y249825000D01*
X81650000Y298625000D02*
X80050000Y298625000D01*
X137650000Y298625000D02*
X137650000Y249825000D01*
X97650000Y249825000D02*
X97650000Y298625000D01*
X153650000Y249825000D02*
X152050000Y249825000D01*
X144050000Y249825000D02*
X142450000Y249825000D01*
X24050000Y249825000D02*
X24050000Y298625000D01*
X153650000Y251140000D02*
X153650000Y249825000D01*
X155250000Y251140000D02*
X153650000Y251140000D01*
X128050000Y298625000D02*
X128050000Y249825000D01*
X155250000Y249825000D02*
X155250000Y251140000D01*
X156850000Y249825000D02*
X155250000Y249825000D01*
X94450000Y249825000D02*
X94450000Y298625000D01*
X156850000Y251100000D02*
X156850000Y249825000D01*
X129650000Y298625000D02*
X128050000Y298625000D01*
X158450000Y251100000D02*
X156850000Y251100000D01*
X161650000Y251050000D02*
X160050000Y251050000D01*
X161650000Y249825000D02*
X161650000Y251050000D01*
X160050000Y249825000D02*
X158450000Y249825000D01*
X163250000Y249825000D02*
X161650000Y249825000D01*
X163250000Y261340000D02*
X163250000Y249825000D01*
X158450000Y249825000D02*
X158450000Y251100000D01*
X120050000Y249825000D02*
X120050000Y298625000D01*
X160050000Y251050000D02*
X160050000Y249825000D01*
X115250000Y298625000D02*
X115250000Y249825000D01*
X161670000Y261410000D02*
X163180000Y261410000D01*
X163180000Y261410000D02*
X163250000Y261340000D01*
X44850000Y249825000D02*
X43250000Y249825000D01*
X124850000Y249825000D02*
X123250000Y249825000D01*
X219250000Y298625000D02*
X219250000Y249825000D01*
X217650000Y298625000D02*
X219250000Y298625000D01*
X217650000Y249825000D02*
X217650000Y298625000D01*
X216050000Y249825000D02*
X217650000Y249825000D01*
X216050000Y298625000D02*
X216050000Y249825000D01*
X214450000Y298625000D02*
X216050000Y298625000D01*
X214450000Y249825000D02*
X214450000Y298625000D01*
X212850000Y249825000D02*
X214450000Y249825000D01*
X211250000Y298625000D02*
X212850000Y298625000D01*
X211250000Y249825000D02*
X211250000Y298625000D01*
X209650000Y249825000D02*
X211250000Y249825000D01*
X209650000Y298625000D02*
X209650000Y249825000D01*
X208050000Y298625000D02*
X209650000Y298625000D01*
X208050000Y249825000D02*
X208050000Y298625000D01*
X206450000Y249825000D02*
X208050000Y249825000D01*
X206450000Y298625000D02*
X206450000Y249825000D01*
X204850000Y298625000D02*
X206450000Y298625000D01*
X204850000Y249825000D02*
X204850000Y298625000D01*
X203250000Y249825000D02*
X204850000Y249825000D01*
X203250000Y298625000D02*
X203250000Y249825000D01*
X201650000Y298625000D02*
X203250000Y298625000D01*
X201650000Y249825000D02*
X201650000Y298625000D01*
X200050000Y249825000D02*
X201650000Y249825000D01*
X200050000Y298625000D02*
X200050000Y249825000D01*
X198450000Y298625000D02*
X200050000Y298625000D01*
X198450000Y249825000D02*
X198450000Y298625000D01*
X196850000Y298625000D02*
X196850000Y249825000D01*
X195250000Y298625000D02*
X196850000Y298625000D01*
X195250000Y249825000D02*
X195250000Y298625000D01*
X193650000Y249825000D02*
X195250000Y249825000D01*
X193650000Y298625000D02*
X193650000Y249825000D01*
X192050000Y249825000D02*
X192050000Y298625000D01*
X196850000Y249825000D02*
X198450000Y249825000D01*
X187250000Y298625000D02*
X187250000Y249825000D01*
X184050000Y249825000D02*
X185650000Y249825000D01*
X184050000Y298625000D02*
X184050000Y249825000D01*
X180850000Y298625000D02*
X180850000Y249825000D01*
X179250000Y298625000D02*
X180850000Y298625000D01*
X179250000Y249825000D02*
X179250000Y298625000D01*
X177650000Y249825000D02*
X179250000Y249825000D01*
X177650000Y298625000D02*
X177650000Y249825000D01*
X176050000Y298625000D02*
X177650000Y298625000D01*
X171250000Y249825000D02*
X172850000Y249825000D01*
X171250000Y298625000D02*
X171250000Y249825000D01*
X169650000Y298625000D02*
X171250000Y298625000D01*
X169650000Y249825000D02*
X169650000Y298625000D01*
X168050000Y249825000D02*
X169650000Y249825000D01*
X168050000Y298625000D02*
X168050000Y249825000D01*
X166450000Y298625000D02*
X168050000Y298625000D01*
X182450000Y298625000D02*
X184050000Y298625000D01*
X166450000Y249825000D02*
X166450000Y298625000D01*
X164850000Y298625000D02*
X164850000Y249825000D01*
X172850000Y249825000D02*
X172850000Y298625000D01*
X163250000Y265290000D02*
X163250000Y298625000D01*
X161650000Y265290000D02*
X163250000Y265290000D01*
X160050000Y298625000D02*
X161650000Y298625000D01*
X164850000Y249825000D02*
X166450000Y249825000D01*
X160050000Y265440000D02*
X160050000Y298625000D01*
X174450000Y298625000D02*
X174450000Y249825000D01*
X159950000Y265340000D02*
X160050000Y265440000D01*
X158475000Y265340000D02*
X159950000Y265340000D01*
X158475000Y298600000D02*
X158475000Y265340000D01*
X172850000Y298625000D02*
X174450000Y298625000D01*
X158450000Y298625000D02*
X158475000Y298600000D01*
X188850000Y249825000D02*
X188850000Y298625000D01*
X156850000Y298625000D02*
X158450000Y298625000D01*
X156850000Y265510000D02*
X156850000Y298625000D01*
X180850000Y249825000D02*
X182450000Y249825000D01*
X187250000Y249825000D02*
X188850000Y249825000D01*
X156740000Y265400000D02*
X156850000Y265510000D01*
X190450000Y249825000D02*
X192050000Y249825000D01*
X155370000Y265400000D02*
X156740000Y265400000D01*
X155275000Y265495000D02*
X155370000Y265400000D01*
X155275000Y298600000D02*
X155275000Y265495000D01*
X155250000Y298625000D02*
X155275000Y298600000D01*
X174450000Y249825000D02*
X176050000Y249825000D01*
X153650000Y298625000D02*
X155250000Y298625000D01*
X153650000Y266240000D02*
X153650000Y298625000D01*
X152120000Y264710000D02*
X153650000Y266240000D01*
X152050000Y264780000D02*
X152120000Y264710000D01*
X163250000Y298625000D02*
X164850000Y298625000D01*
X212850000Y298625000D02*
X212850000Y249825000D01*
X152050000Y298625000D02*
X152050000Y264780000D01*
X182450000Y249825000D02*
X182450000Y298625000D01*
X190450000Y298625000D02*
X190450000Y249825000D01*
X150450000Y260110000D02*
X150450000Y298625000D01*
X161650000Y298625000D02*
X161650000Y265290000D01*
X150450000Y298625000D02*
X152050000Y298625000D01*
X153460000Y263590000D02*
X153460000Y263120000D01*
X153500000Y263630000D02*
X153460000Y263590000D01*
X153460000Y263120000D02*
X150450000Y260110000D01*
X176050000Y249825000D02*
X176050000Y298625000D01*
X188850000Y298625000D02*
X190450000Y298625000D01*
X161675000Y261465000D02*
X161675000Y263630000D01*
X161670000Y261460000D02*
X161675000Y261465000D01*
X185650000Y298625000D02*
X187250000Y298625000D01*
X192050000Y298625000D02*
X193650000Y298625000D01*
X161675000Y263630000D02*
X153500000Y263630000D01*
X185650000Y249825000D02*
X185650000Y298625000D01*
X270350000Y253770000D02*
X270350000Y249950000D01*
X271950000Y252170000D02*
X270350000Y253770000D01*
X271950000Y249950000D02*
X271950000Y252170000D01*
X273550000Y249950000D02*
X271950000Y249950000D01*
X273550000Y251210000D02*
X273550000Y249950000D01*
X275150000Y251210000D02*
X273550000Y251210000D01*
X275150000Y249950000D02*
X275150000Y251210000D01*
X276750000Y249950000D02*
X275150000Y249950000D01*
X276750000Y251230000D02*
X276750000Y249950000D01*
X278350000Y251230000D02*
X276750000Y251230000D01*
X281550000Y251210000D02*
X279950000Y251210000D01*
X281550000Y249950000D02*
X281550000Y251210000D01*
X283150000Y249950000D02*
X281550000Y249950000D01*
X283150000Y260725000D02*
X283150000Y249950000D01*
X279950000Y249950000D02*
X278350000Y249950000D01*
X281550000Y260725000D02*
X283150000Y260725000D01*
X279950000Y251210000D02*
X279950000Y249950000D01*
X278350000Y249950000D02*
X278350000Y251230000D01*
D14*
X258900000Y93525000D02*
X258900000Y153525000D01*
X261300000Y93525000D02*
X258900000Y93525000D01*
X261300000Y124700000D02*
X261300000Y93525000D01*
X263700000Y124700000D02*
X261300000Y124700000D01*
X263700000Y93525000D02*
X263700000Y124700000D01*
X266100000Y93525000D02*
X263700000Y93525000D01*
X266100000Y123250000D02*
X266100000Y93525000D01*
X268500000Y123250000D02*
X266100000Y123250000D01*
X268500000Y93525000D02*
X268500000Y123250000D01*
X270900000Y108908800D02*
X270900000Y93525000D01*
X270900000Y93525000D02*
X268500000Y93525000D01*
X273300000Y93525000D02*
X273300000Y108908800D01*
X275700000Y107630000D02*
X275700000Y93525000D01*
X273300000Y108908800D02*
X270900000Y108908800D01*
X275700000Y93525000D02*
X273300000Y93525000D01*
X278112500Y93525000D02*
X278100000Y93537500D01*
X280487500Y107642500D02*
X280487500Y93525000D01*
X278100000Y93537500D02*
X278100000Y107630000D01*
X278100000Y107630000D02*
X275700000Y107630000D01*
X280470000Y107660000D02*
X280487500Y107642500D01*
X280487500Y93525000D02*
X278112500Y93525000D01*
X282862500Y107660000D02*
X280487500Y107660000D01*
X282862500Y93562500D02*
X282862500Y107660000D01*
X282900000Y93525000D02*
X282862500Y93562500D01*
X285300000Y93525000D02*
X282900000Y93525000D01*
X285300000Y118850000D02*
X285300000Y93525000D01*
X282950000Y118875000D02*
X285325000Y118875000D01*
X285325000Y118875000D02*
X285300000Y118850000D01*
X282950000Y121275000D02*
X282950000Y118875000D01*
X285350000Y123675000D02*
X285350000Y121275000D01*
X282950000Y126075000D02*
X282950000Y123675000D01*
X282950000Y123675000D02*
X285350000Y123675000D01*
X285350000Y121275000D02*
X282950000Y121275000D01*
X280550000Y126075000D02*
X282950000Y126075000D01*
X148500000Y93725000D02*
X148500000Y160425000D01*
X150900000Y93725000D02*
X148500000Y93725000D01*
X150875000Y93750000D02*
X150900000Y93725000D01*
X153275000Y109460000D02*
X150875000Y109460000D01*
X153275000Y93750000D02*
X153275000Y109460000D01*
X153300000Y93725000D02*
X153275000Y93750000D01*
X150875000Y109460000D02*
X150875000Y93750000D01*
X155675000Y93750000D02*
X155700000Y93725000D01*
X155675000Y109460000D02*
X155675000Y93750000D01*
X158075000Y109460000D02*
X155675000Y109460000D01*
X158075000Y93750000D02*
X158075000Y109460000D01*
X160500000Y93725000D02*
X158100000Y93725000D01*
X158100000Y93725000D02*
X158075000Y93750000D01*
X155700000Y93725000D02*
X153300000Y93725000D01*
X160500000Y109460000D02*
X160500000Y93725000D01*
X162900000Y93725000D02*
X162900000Y109460000D01*
X162900000Y109460000D02*
X160500000Y109460000D01*
X165300000Y93725000D02*
X162900000Y93725000D01*
X165300000Y115025000D02*
X165300000Y93725000D01*
X152630000Y122450000D02*
X150900000Y120720000D01*
X165325000Y119800000D02*
X162925000Y119800000D01*
X165325000Y117400000D02*
X165325000Y119800000D01*
X162925000Y117400000D02*
X165325000Y117400000D01*
X160275000Y122450000D02*
X152630000Y122450000D01*
X162925000Y115000000D02*
X162925000Y117400000D01*
X162925000Y119800000D02*
X160275000Y122450000D01*
X150900000Y120720000D02*
X150900000Y156850000D01*
X35744200Y107613400D02*
X38076600Y107613400D01*
X38076600Y107613400D02*
X38100000Y107590000D01*
X33300000Y107658400D02*
X33300000Y92525000D01*
X33300000Y92525000D02*
X35700000Y92525000D01*
X35700000Y92525000D02*
X35700000Y107569200D01*
X38639800Y120897600D02*
X30900000Y120897600D01*
X40500000Y119037400D02*
X38639800Y120897600D01*
X38100000Y92525000D02*
X40500000Y92525000D01*
X38100000Y107594400D02*
X38100000Y92525000D01*
X40500000Y92525000D02*
X40500000Y119037400D01*
X30900000Y120897600D02*
X30900000Y196525000D01*
X23700000Y196875000D02*
X23700000Y94925000D01*
X28350000Y92675000D02*
X28500000Y92525000D01*
X28475000Y196825000D02*
X28350000Y196700000D01*
X26075000Y92550000D02*
X26075000Y196825000D01*
X23700000Y94925000D02*
X26075000Y92550000D01*
X26075000Y196825000D02*
X28475000Y196825000D01*
X28350000Y196700000D02*
X28350000Y92675000D01*
X28500000Y92525000D02*
X30900000Y92525000D01*
X30900000Y92525000D02*
X30900000Y107638800D01*
X30900000Y107638800D02*
X30925400Y107664200D01*
X30925400Y107664200D02*
X33305800Y107664200D01*
X33400000Y124250000D02*
X38995400Y124250000D01*
X33275000Y124375000D02*
X33400000Y124250000D01*
X52500000Y129925000D02*
X54900000Y129925000D01*
X54900000Y129925000D02*
X54900000Y127525000D01*
X52500000Y122975000D02*
X50100000Y122975000D01*
X54900000Y127525000D02*
X52500000Y127525000D01*
X50100000Y122975000D02*
X50100000Y93725000D01*
X52500000Y127525000D02*
X52500000Y125125000D01*
X52500000Y125125000D02*
X54900000Y125125000D01*
X54900000Y93725000D02*
X52500000Y93725000D01*
X45275000Y92550000D02*
X45300000Y92525000D01*
X54900000Y125125000D02*
X54900000Y93725000D01*
X52500000Y93725000D02*
X52500000Y122975000D01*
X50100000Y93725000D02*
X47700000Y93725000D01*
X47700000Y93725000D02*
X47700000Y122975000D01*
X47700000Y122975000D02*
X47675000Y123000000D01*
X47675000Y123000000D02*
X45275000Y123000000D01*
X45275000Y123000000D02*
X45275000Y92550000D01*
X45300000Y92525000D02*
X42900000Y92525000D01*
X42900000Y92525000D02*
X42900000Y123000000D01*
X42900000Y123000000D02*
X42050000Y123000000D01*
X42050000Y123000000D02*
X40800000Y124250000D01*
X40800000Y124250000D02*
X38400000Y124250000D01*
D16*
%TO.N,Net-(D1-Pad2)*%
X24000000Y431375000D02*
X24000000Y432525000D01*
X28450000Y423525000D02*
X28450000Y430025000D01*
X24350000Y431025000D02*
X24000000Y431375000D01*
X28450000Y430025000D02*
X27450000Y431025000D01*
X27450000Y431025000D02*
X24350000Y431025000D01*
X27450000Y422525000D02*
X25999020Y422525000D01*
X27450000Y422525000D02*
X28450000Y423525000D01*
D14*
%TO.N,Net-(D1-Pad1)*%
X249300000Y93525000D02*
X249300000Y155975000D01*
X274750000Y351125000D02*
X274750000Y375150000D01*
X298750000Y351125000D02*
X296350000Y351125000D01*
X30050000Y417025000D02*
X32450000Y417025000D01*
D15*
X294450000Y249725000D02*
X294450000Y298525000D01*
X233650000Y300325000D02*
X235250000Y300325000D01*
D14*
X102875000Y196800000D02*
X105275000Y196800000D01*
X212450000Y417050000D02*
X212450000Y351050000D01*
D15*
X154650000Y198725000D02*
X153050000Y198725000D01*
D14*
X182075000Y196750000D02*
X182075000Y196775000D01*
D15*
X298650000Y198625000D02*
X300250000Y198625000D01*
D14*
X66875000Y162050000D02*
X66900000Y162025000D01*
D15*
X247450000Y247625000D02*
X247450000Y198825000D01*
X31450000Y198725000D02*
X31450000Y247525000D01*
X143450000Y247525000D02*
X141850000Y247525000D01*
X82650000Y247525000D02*
X81050000Y247525000D01*
X10650000Y198725000D02*
X9050000Y198725000D01*
X286350000Y249925000D02*
X284750000Y249925000D01*
D14*
X153275000Y124700000D02*
X155675000Y124700000D01*
X23675000Y196825000D02*
X21275000Y196825000D01*
X262700000Y351150000D02*
X262700000Y376375000D01*
D15*
X172250000Y198725000D02*
X172250000Y247525000D01*
X44250000Y198725000D02*
X44250000Y247525000D01*
X297650000Y298525000D02*
X296050000Y298525000D01*
D14*
X6900000Y178975000D02*
X6900000Y176575000D01*
X272100000Y137925000D02*
X274500000Y137925000D01*
X298700000Y417100000D02*
X298675000Y417125000D01*
X37375000Y406200000D02*
X39650000Y403925000D01*
X93300000Y155575000D02*
X93300000Y93725000D01*
X83700000Y93725000D02*
X81300000Y93725000D01*
X27650000Y417025000D02*
X25250000Y414625000D01*
D15*
X175450000Y247525000D02*
X173850000Y247525000D01*
X47450000Y247525000D02*
X45850000Y247525000D01*
D14*
X174875000Y159325000D02*
X174900000Y159300000D01*
D15*
X49050000Y198725000D02*
X47450000Y198725000D01*
X34650000Y247525000D02*
X33050000Y247525000D01*
D14*
X54875000Y142650000D02*
X54875000Y196750000D01*
D15*
X45850000Y198725000D02*
X44250000Y198725000D01*
X175450000Y198725000D02*
X175450000Y247525000D01*
D14*
X184475000Y159875000D02*
X184500000Y159850000D01*
X50175000Y140575000D02*
X50175000Y138175000D01*
D17*
X18550000Y419925000D02*
X30550000Y419925000D01*
D14*
X36925000Y391175000D02*
X36925000Y351025000D01*
X112475000Y196800000D02*
X112475000Y151400000D01*
X136475000Y156100000D02*
X136500000Y156075000D01*
X165275000Y196775000D02*
X167675000Y196775000D01*
X47775000Y140575000D02*
X45375000Y140575000D01*
D15*
X302400000Y302275000D02*
X302400000Y301225000D01*
X291250000Y249725000D02*
X291250000Y298525000D01*
X44250000Y247525000D02*
X42650000Y247525000D01*
D14*
X114875000Y196800000D02*
X114875000Y156350000D01*
D15*
X242650000Y247625000D02*
X241050000Y247625000D01*
X286350000Y298725000D02*
X286350000Y249925000D01*
D14*
X117300000Y93725000D02*
X114900000Y93725000D01*
X81300000Y93725000D02*
X81300000Y161275000D01*
X226850000Y407799500D02*
X229250000Y410199500D01*
X49300000Y377075000D02*
X49250000Y377125000D01*
X203700000Y160300000D02*
X203700000Y93725000D01*
X6900000Y240050000D02*
X6900000Y192125000D01*
D15*
X280950000Y198825000D02*
X279350000Y198825000D01*
D14*
X246875000Y196775000D02*
X249275000Y196775000D01*
D15*
X283150000Y349125000D02*
X283150000Y300325000D01*
D14*
X34850000Y417025000D02*
X37250000Y417025000D01*
D15*
X105650000Y349025000D02*
X105650000Y300225000D01*
X108250000Y247525000D02*
X106650000Y247525000D01*
D14*
X251675000Y196775000D02*
X254075000Y196775000D01*
X71700000Y93725000D02*
X71700000Y196775000D01*
X51650000Y377125000D02*
X49250000Y377125000D01*
X6850000Y186325000D02*
X9250000Y186325000D01*
D15*
X178650000Y198725000D02*
X178650000Y247525000D01*
D14*
X54875000Y196825000D02*
X57275000Y196825000D01*
X42850000Y142700000D02*
X42800000Y142650000D01*
D15*
X236250000Y247625000D02*
X234650000Y247625000D01*
D14*
X195625000Y417075000D02*
X193225000Y417075000D01*
X244475000Y196775000D02*
X244500000Y196750000D01*
X213275000Y196775000D02*
X213275000Y159775000D01*
X234050000Y414174000D02*
X234050000Y351125000D01*
D15*
X35250000Y349025000D02*
X35250000Y300225000D01*
D14*
X9300000Y166975000D02*
X9300000Y164575000D01*
X51650000Y385975000D02*
X54050000Y385975000D01*
D15*
X151450000Y198725000D02*
X149850000Y198725000D01*
X300250000Y247425000D02*
X301850000Y247425000D01*
D14*
X272325000Y375200000D02*
X269925000Y375200000D01*
X6900000Y114125000D02*
X9300000Y114125000D01*
X260350000Y351125000D02*
X257950000Y351125000D01*
D15*
X92250000Y247525000D02*
X90650000Y247525000D01*
X28250000Y247525000D02*
X26650000Y247525000D01*
D14*
X241250000Y417125000D02*
X243650000Y417125000D01*
D15*
X286350000Y300425000D02*
X286350000Y349225000D01*
X58650000Y247525000D02*
X58650000Y198725000D01*
X104050000Y349025000D02*
X105650000Y349025000D01*
X199450000Y247525000D02*
X199450000Y198725000D01*
X137650000Y349025000D02*
X137650000Y300225000D01*
D14*
X36925000Y351025000D02*
X39650000Y351025000D01*
X12500000Y301075000D02*
X13700000Y301075000D01*
D15*
X263350000Y247625000D02*
X261750000Y247625000D01*
D14*
X16500000Y102125000D02*
X16500000Y116525000D01*
X220475000Y196775000D02*
X220475000Y160225000D01*
D15*
X114650000Y247525000D02*
X113050000Y247525000D01*
D14*
X47775000Y138175000D02*
X47775000Y140575000D01*
D15*
X41050000Y198725000D02*
X41050000Y247525000D01*
D14*
X219650000Y351125000D02*
X222050000Y351125000D01*
X294875000Y196725000D02*
X297275000Y196725000D01*
X236450000Y417125000D02*
X238850000Y417125000D01*
D15*
X170650000Y198725000D02*
X169050000Y198725000D01*
X165850000Y247525000D02*
X164250000Y247525000D01*
X253750000Y247625000D02*
X252150000Y247625000D01*
X267150000Y249925000D02*
X265550000Y249925000D01*
D14*
X27625000Y390650000D02*
X25225000Y390650000D01*
X244500000Y93525000D02*
X246900000Y93525000D01*
X172475000Y196775000D02*
X172475000Y161625000D01*
X249300000Y155975000D02*
X249300000Y163125000D01*
D15*
X189850000Y247525000D02*
X189850000Y198725000D01*
X216050000Y300225000D02*
X216050000Y349025000D01*
X300850000Y249725000D02*
X300850000Y298525000D01*
X165850000Y198725000D02*
X165850000Y247525000D01*
X299250000Y249725000D02*
X297650000Y249725000D01*
X93850000Y198725000D02*
X92250000Y198725000D01*
D14*
X50175000Y138175000D02*
X47775000Y138175000D01*
X246900000Y93525000D02*
X246900000Y158100000D01*
X78875000Y196800000D02*
X81275000Y196800000D01*
D15*
X123250000Y349025000D02*
X124850000Y349025000D01*
X159450000Y247525000D02*
X157850000Y247525000D01*
X297050000Y198625000D02*
X297050000Y247425000D01*
X302400000Y349225000D02*
X302400000Y302275000D01*
X229850000Y198825000D02*
X229850000Y247625000D01*
D14*
X143675000Y159650000D02*
X143700000Y159625000D01*
X186900000Y93725000D02*
X186900000Y158150000D01*
X54050000Y383575000D02*
X51650000Y383575000D01*
D15*
X288100000Y349225000D02*
X288100000Y300425000D01*
D14*
X285300000Y196700000D02*
X285275000Y196725000D01*
D15*
X263950000Y298725000D02*
X263950000Y249925000D01*
D14*
X63650000Y417175000D02*
X63650000Y351025000D01*
D15*
X25650000Y349025000D02*
X25650000Y300225000D01*
D14*
X143675000Y196800000D02*
X141275000Y196800000D01*
D15*
X129650000Y349025000D02*
X131250000Y349025000D01*
D14*
X305950000Y411880000D02*
X305950000Y396675000D01*
D16*
X28950000Y432525000D02*
X33450000Y428025000D01*
D14*
X100475000Y196800000D02*
X100475000Y161150000D01*
X225275000Y161575000D02*
X225300000Y161550000D01*
D15*
X157850000Y198725000D02*
X156250000Y198725000D01*
X300800000Y349225000D02*
X302400000Y349225000D01*
X148850000Y300225000D02*
X148850000Y349025000D01*
X169050000Y198725000D02*
X169050000Y247525000D01*
X252850000Y349125000D02*
X252850000Y300325000D01*
D14*
X277450000Y389000000D02*
X275450000Y389000000D01*
X9300000Y133325000D02*
X9300000Y130925000D01*
X122075000Y196800000D02*
X124475000Y196800000D01*
X242075000Y196775000D02*
X242075000Y93550000D01*
X243650000Y417125000D02*
X243650000Y351125000D01*
X105275000Y161350000D02*
X105300000Y161325000D01*
X208500000Y159400000D02*
X208500000Y93725000D01*
D15*
X127450000Y247525000D02*
X125850000Y247525000D01*
X212250000Y198725000D02*
X210650000Y198725000D01*
X257550000Y249925000D02*
X255950000Y249925000D01*
X60250000Y247525000D02*
X58650000Y247525000D01*
D14*
X114875000Y156350000D02*
X114900000Y156325000D01*
D15*
X202650000Y247525000D02*
X202650000Y198725000D01*
D14*
X98100000Y158500000D02*
X98100000Y93725000D01*
X275450000Y391000000D02*
X275450000Y389000000D01*
D15*
X204250000Y198725000D02*
X204250000Y247525000D01*
D14*
X78900000Y163325000D02*
X78900000Y158625000D01*
X285275000Y196725000D02*
X285275000Y128275000D01*
D15*
X259150000Y300325000D02*
X259150000Y349125000D01*
D14*
X262750000Y417125000D02*
X262750000Y394325000D01*
D15*
X299250000Y298525000D02*
X299250000Y249725000D01*
D14*
X7050000Y240200000D02*
X6900000Y240050000D01*
X270875000Y142675000D02*
X268475000Y142675000D01*
D15*
X291200000Y349225000D02*
X292800000Y349225000D01*
D14*
X90875000Y196800000D02*
X90875000Y159200000D01*
X206075000Y196775000D02*
X206075000Y161250000D01*
D15*
X283150000Y300325000D02*
X284750000Y300325000D01*
D14*
X246900000Y158100000D02*
X246900000Y163125000D01*
D15*
X54450000Y300225000D02*
X56050000Y300225000D01*
D14*
X6900000Y133325000D02*
X9300000Y133325000D01*
D15*
X222450000Y300325000D02*
X222450000Y349125000D01*
X156250000Y198725000D02*
X156250000Y247525000D01*
D14*
X258900000Y153525000D02*
X258900000Y163125000D01*
D15*
X232050000Y300325000D02*
X232050000Y349125000D01*
D14*
X174900000Y93725000D02*
X172500000Y93725000D01*
X148500000Y160425000D02*
X148500000Y163325000D01*
X61200000Y417200000D02*
X58800000Y417200000D01*
D15*
X221850000Y198825000D02*
X220250000Y198825000D01*
X30450000Y300225000D02*
X30450000Y349025000D01*
X177050000Y247525000D02*
X177050000Y198725000D01*
D14*
X294900000Y196700000D02*
X294875000Y196725000D01*
X230075000Y144025000D02*
X230100000Y144000000D01*
D15*
X210650000Y198725000D02*
X210650000Y247525000D01*
D14*
X33275000Y126700000D02*
X33275000Y124300000D01*
D15*
X127450000Y198725000D02*
X127450000Y247525000D01*
D14*
X198900000Y93725000D02*
X196500000Y93725000D01*
X280475000Y196725000D02*
X282875000Y196725000D01*
D15*
X37850000Y247525000D02*
X36250000Y247525000D01*
X168050000Y300225000D02*
X168050000Y349025000D01*
X180250000Y247525000D02*
X180250000Y198725000D01*
X94450000Y300225000D02*
X94450000Y349025000D01*
X194650000Y247525000D02*
X193050000Y247525000D01*
X94450000Y349025000D02*
X96050000Y349025000D01*
X289050000Y247425000D02*
X289050000Y198625000D01*
D14*
X167675000Y196775000D02*
X167675000Y160950000D01*
D15*
X46450000Y300225000D02*
X46450000Y349025000D01*
D14*
X146100000Y160175000D02*
X146100000Y93725000D01*
D15*
X119450000Y198725000D02*
X117850000Y198725000D01*
X167450000Y247525000D02*
X167450000Y198725000D01*
X210650000Y247525000D02*
X209050000Y247525000D01*
X179250000Y349025000D02*
X179250000Y300225000D01*
X248050000Y249925000D02*
X248050000Y298725000D01*
D14*
X86050000Y196800000D02*
X86075000Y196775000D01*
D15*
X68250000Y247525000D02*
X68250000Y198725000D01*
D14*
X52475000Y196825000D02*
X52475000Y142650000D01*
X9300000Y123725000D02*
X9300000Y121325000D01*
X102875000Y196800000D02*
X102875000Y161275000D01*
X150875000Y196800000D02*
X153275000Y196800000D01*
X267100000Y140325000D02*
X264700000Y140325000D01*
X230100000Y144000000D02*
X230100000Y153050000D01*
D15*
X60850000Y349025000D02*
X60850000Y300225000D01*
D14*
X189300000Y93725000D02*
X186900000Y93725000D01*
D15*
X254350000Y300325000D02*
X255950000Y300325000D01*
X36850000Y349025000D02*
X38450000Y349025000D01*
X66650000Y198725000D02*
X66650000Y247525000D01*
D14*
X45375000Y138150000D02*
X42975000Y138150000D01*
D15*
X50650000Y198725000D02*
X50650000Y247525000D01*
X270350000Y249925000D02*
X268750000Y249925000D01*
D14*
X206100000Y161225000D02*
X206100000Y163325000D01*
D15*
X113650000Y300225000D02*
X113650000Y349025000D01*
D14*
X198875000Y196775000D02*
X198875000Y159700000D01*
D15*
X259150000Y249925000D02*
X259150000Y298725000D01*
X292800000Y300425000D02*
X294400000Y300425000D01*
D14*
X203675000Y196775000D02*
X206075000Y196775000D01*
X262725000Y351125000D02*
X262700000Y351150000D01*
X298675000Y351200000D02*
X298750000Y351125000D01*
D15*
X188850000Y349025000D02*
X188850000Y300225000D01*
X264950000Y247625000D02*
X264950000Y198825000D01*
X243250000Y249925000D02*
X241650000Y249925000D01*
D14*
X277400000Y383000000D02*
X275400000Y383000000D01*
X6900000Y142925000D02*
X9300000Y142925000D01*
X200425000Y417075000D02*
X198025000Y417075000D01*
D15*
X265550000Y300325000D02*
X265550000Y349125000D01*
D14*
X280475000Y128300000D02*
X280450000Y128275000D01*
D15*
X10650000Y247525000D02*
X10650000Y198725000D01*
X118450000Y300225000D02*
X120050000Y300225000D01*
X17050000Y247525000D02*
X17050000Y198725000D01*
X163250000Y349025000D02*
X163250000Y300225000D01*
D14*
X182050000Y196775000D02*
X182075000Y196750000D01*
X34850000Y408900000D02*
X34850000Y417025000D01*
X93300000Y155575000D02*
X93275000Y155600000D01*
X269975000Y417100000D02*
X269975000Y394350000D01*
D15*
X224050000Y300325000D02*
X225650000Y300325000D01*
X287450000Y247425000D02*
X289050000Y247425000D01*
D14*
X220475000Y160225000D02*
X220500000Y160200000D01*
D15*
X230450000Y298725000D02*
X230450000Y249925000D01*
X47450000Y198725000D02*
X47450000Y247525000D01*
X220850000Y349125000D02*
X220850000Y300325000D01*
D14*
X74075000Y160475000D02*
X74100000Y160450000D01*
D15*
X302450000Y298525000D02*
X302450000Y298025000D01*
X224050000Y249925000D02*
X222450000Y249925000D01*
D14*
X296300000Y351175000D02*
X296300000Y417100000D01*
D15*
X219250000Y349125000D02*
X220850000Y349125000D01*
X155250000Y349025000D02*
X156850000Y349025000D01*
X69850000Y247525000D02*
X68250000Y247525000D01*
X265550000Y298725000D02*
X263950000Y298725000D01*
X190450000Y349025000D02*
X192050000Y349025000D01*
X109850000Y198725000D02*
X108250000Y198725000D01*
D14*
X40375000Y140550000D02*
X40375000Y138150000D01*
X172500000Y93725000D02*
X172500000Y161600000D01*
D15*
X217050000Y247525000D02*
X215450000Y247525000D01*
X276750000Y249925000D02*
X275150000Y249925000D01*
X161650000Y300225000D02*
X161650000Y349025000D01*
X132250000Y247500000D02*
X132250000Y198700000D01*
X225650000Y249925000D02*
X225650000Y298725000D01*
X152050000Y349025000D02*
X153650000Y349025000D01*
D14*
X86075000Y161200000D02*
X86100000Y161175000D01*
X170100000Y161125000D02*
X170100000Y93725000D01*
D15*
X168050000Y349025000D02*
X169650000Y349025000D01*
D14*
X150900000Y163325000D02*
X150900000Y156850000D01*
X237275000Y93550000D02*
X237300000Y93525000D01*
D15*
X274550000Y198825000D02*
X272950000Y198825000D01*
D14*
X214850000Y417050000D02*
X212450000Y417050000D01*
X141275000Y196800000D02*
X141275000Y155475000D01*
D15*
X291200000Y300425000D02*
X291200000Y349225000D01*
D14*
X290100000Y96780000D02*
X290100000Y157825000D01*
D15*
X107250000Y300225000D02*
X107250000Y349025000D01*
X295450000Y247425000D02*
X295450000Y198625000D01*
X104050000Y300225000D02*
X104050000Y349025000D01*
X241650000Y298725000D02*
X240050000Y298725000D01*
D14*
X6900000Y150125000D02*
X6900000Y147725000D01*
X95700000Y157625000D02*
X95700000Y163325000D01*
X215675000Y160700000D02*
X215700000Y160675000D01*
D15*
X180850000Y349025000D02*
X182450000Y349025000D01*
D14*
X9300000Y150125000D02*
X6900000Y150125000D01*
D15*
X42650000Y247525000D02*
X42650000Y198725000D01*
D14*
X193225000Y417075000D02*
X193225000Y351075000D01*
X214850000Y351050000D02*
X214850000Y417050000D01*
X262750000Y351150000D02*
X262725000Y351125000D01*
X279550000Y351125000D02*
X277150000Y351125000D01*
X33275000Y196825000D02*
X33275000Y134100000D01*
D15*
X273550000Y349125000D02*
X273550000Y300325000D01*
X144050000Y349025000D02*
X144050000Y300225000D01*
D14*
X275037600Y122116800D02*
X276307600Y120846800D01*
X54025000Y388375000D02*
X54025000Y390775000D01*
D17*
X8950000Y415125000D02*
X16450000Y422625000D01*
D14*
X213300000Y93725000D02*
X213300000Y159750000D01*
X6900000Y118925000D02*
X9300000Y118925000D01*
X275675000Y136025000D02*
X275675000Y127453200D01*
X42050000Y417025000D02*
X42050000Y398725000D01*
D15*
X176050000Y349025000D02*
X176050000Y300225000D01*
D14*
X64500000Y159450000D02*
X64500000Y93725000D01*
X194075000Y196775000D02*
X194075000Y158800000D01*
D15*
X59250000Y349025000D02*
X60850000Y349025000D01*
D14*
X81275000Y196800000D02*
X81275000Y161300000D01*
X46900000Y351075000D02*
X46850000Y351025000D01*
D15*
X73050000Y247525000D02*
X71450000Y247525000D01*
D14*
X39650000Y403925000D02*
X39650000Y417025000D01*
D15*
X178650000Y247525000D02*
X177050000Y247525000D01*
X150450000Y300225000D02*
X152050000Y300225000D01*
D14*
X243650000Y351125000D02*
X246050000Y351125000D01*
X250850000Y417125000D02*
X253250000Y417125000D01*
X218100000Y93525000D02*
X215700000Y93525000D01*
X9300000Y111725000D02*
X6900000Y111725000D01*
D15*
X164850000Y300225000D02*
X164850000Y349025000D01*
D14*
X13700000Y301075000D02*
X15650000Y303025000D01*
D15*
X140250000Y247525000D02*
X138650000Y247525000D01*
X287850000Y298525000D02*
X287850000Y249725000D01*
D14*
X138850000Y156275000D02*
X138900000Y156225000D01*
D15*
X241650000Y349125000D02*
X243250000Y349125000D01*
X262350000Y349125000D02*
X263950000Y349125000D01*
X270350000Y349125000D02*
X270350000Y300325000D01*
X119450000Y247525000D02*
X119450000Y198725000D01*
D14*
X9300000Y154925000D02*
X6900000Y154925000D01*
D15*
X139250000Y300225000D02*
X139250000Y349025000D01*
X92850000Y349025000D02*
X92850000Y300225000D01*
X29850000Y247525000D02*
X29850000Y198725000D01*
D14*
X267550000Y394325000D02*
X267525000Y394350000D01*
X277400000Y387000000D02*
X275400000Y387000000D01*
D15*
X70450000Y349025000D02*
X70450000Y300225000D01*
D14*
X98100000Y93725000D02*
X95700000Y93725000D01*
D15*
X147250000Y349025000D02*
X147250000Y300225000D01*
X53850000Y198725000D02*
X53850000Y247525000D01*
X106650000Y247525000D02*
X106650000Y198725000D01*
X287950000Y298725000D02*
X286350000Y298725000D01*
X169050000Y247525000D02*
X167450000Y247525000D01*
X149850000Y247525000D02*
X148250000Y247525000D01*
D14*
X249275000Y196750000D02*
X249275000Y156000000D01*
X253250000Y417125000D02*
X253250000Y351125000D01*
X265125000Y351125000D02*
X265125000Y375200000D01*
D15*
X227250000Y300325000D02*
X228850000Y300325000D01*
X230450000Y249925000D02*
X228850000Y249925000D01*
X223450000Y198825000D02*
X223450000Y247625000D01*
D14*
X44450000Y377075000D02*
X44500000Y377125000D01*
X179675000Y196775000D02*
X182050000Y196775000D01*
D15*
X193050000Y247525000D02*
X193050000Y198725000D01*
D14*
X93275000Y196800000D02*
X95675000Y196800000D01*
X37975000Y142650000D02*
X40375000Y142650000D01*
D15*
X217050000Y198725000D02*
X217050000Y247525000D01*
X148850000Y349025000D02*
X150450000Y349025000D01*
D14*
X141275000Y155475000D02*
X141300000Y155450000D01*
D15*
X268150000Y198825000D02*
X266550000Y198825000D01*
D14*
X222900000Y93525000D02*
X220500000Y93525000D01*
X6900000Y135725000D02*
X6900000Y133325000D01*
X174875000Y196775000D02*
X174875000Y159325000D01*
D15*
X290650000Y247425000D02*
X292250000Y247425000D01*
D14*
X226850000Y351125000D02*
X226850000Y407799500D01*
X6900000Y157325000D02*
X9300000Y157325000D01*
D15*
X257550000Y349125000D02*
X257550000Y300325000D01*
X198450000Y300225000D02*
X200050000Y300225000D01*
D14*
X289100000Y417100000D02*
X289075000Y417125000D01*
D15*
X187250000Y349025000D02*
X188850000Y349025000D01*
X259150000Y349125000D02*
X260750000Y349125000D01*
X48050000Y300225000D02*
X49650000Y300225000D01*
D14*
X269950000Y394325000D02*
X267550000Y394325000D01*
D15*
X12250000Y198725000D02*
X12250000Y247525000D01*
X113050000Y247525000D02*
X113050000Y198725000D01*
X148250000Y198725000D02*
X146650000Y198725000D01*
D14*
X54875000Y137325000D02*
X52475000Y137325000D01*
X299700000Y196700000D02*
X299675000Y196725000D01*
X102900000Y163325000D02*
X102900000Y161250000D01*
X54050000Y385975000D02*
X54050000Y383575000D01*
D15*
X115250000Y300225000D02*
X116850000Y300225000D01*
D14*
X54900000Y132525000D02*
X52500000Y132525000D01*
X269700000Y137925000D02*
X269700000Y140325000D01*
D15*
X203250000Y300225000D02*
X203250000Y349025000D01*
D17*
X12500000Y301075000D02*
X12500000Y413875000D01*
D14*
X165275000Y196775000D02*
X165275000Y122725000D01*
X6900000Y145325000D02*
X6900000Y142925000D01*
X7050000Y245025000D02*
X8450000Y246425000D01*
X30050000Y351025000D02*
X30050000Y387100000D01*
X232475000Y93550000D02*
X232500000Y93525000D01*
X122100000Y161725000D02*
X122100000Y93725000D01*
D15*
X235250000Y300325000D02*
X235250000Y349125000D01*
D14*
X170075000Y196775000D02*
X170075000Y161150000D01*
D15*
X193650000Y300225000D02*
X193650000Y349025000D01*
X58650000Y198725000D02*
X57050000Y198725000D01*
X63450000Y247525000D02*
X61850000Y247525000D01*
D14*
X215700000Y93725000D02*
X215700000Y160675000D01*
D15*
X206450000Y300225000D02*
X206450000Y349025000D01*
X227250000Y349125000D02*
X227250000Y300325000D01*
D14*
X52475000Y142650000D02*
X54875000Y142650000D01*
D15*
X260150000Y247625000D02*
X258550000Y247625000D01*
X107250000Y349025000D02*
X108850000Y349025000D01*
X293850000Y247425000D02*
X295450000Y247425000D01*
D14*
X54050000Y417025000D02*
X54025000Y417050000D01*
D15*
X132850000Y300225000D02*
X132850000Y349025000D01*
D14*
X198900000Y163325000D02*
X198900000Y159675000D01*
D15*
X124250000Y198725000D02*
X124250000Y247525000D01*
D14*
X210900000Y196750000D02*
X210900000Y93725000D01*
D15*
X182450000Y300225000D02*
X184050000Y300225000D01*
D14*
X88475000Y196800000D02*
X88475000Y160625000D01*
X83700000Y159975000D02*
X83675000Y160000000D01*
X298675000Y417125000D02*
X298675000Y351200000D01*
D15*
X89050000Y198725000D02*
X89050000Y247525000D01*
X292250000Y247425000D02*
X292250000Y198625000D01*
X84250000Y247525000D02*
X84250000Y198725000D01*
D14*
X287700000Y153500000D02*
X287700000Y94380000D01*
D15*
X89050000Y247525000D02*
X87450000Y247525000D01*
X79450000Y247525000D02*
X77850000Y247525000D01*
D14*
X222050000Y351125000D02*
X222050000Y410410000D01*
X93300000Y93725000D02*
X90900000Y93725000D01*
X27650000Y351025000D02*
X27650000Y390625000D01*
X299700000Y105942500D02*
X299700000Y196700000D01*
D15*
X260750000Y300325000D02*
X262350000Y300325000D01*
X302450000Y298025000D02*
X302450000Y249725000D01*
X194650000Y198725000D02*
X194650000Y247525000D01*
D14*
X191675000Y196775000D02*
X191675000Y156175000D01*
X16475000Y196825000D02*
X18875000Y196825000D01*
D15*
X225650000Y349125000D02*
X227250000Y349125000D01*
X147250000Y300225000D02*
X148850000Y300225000D01*
X88050000Y300225000D02*
X88050000Y349025000D01*
X209050000Y247525000D02*
X209050000Y198725000D01*
D14*
X78875000Y196800000D02*
X78875000Y158650000D01*
D15*
X275150000Y349125000D02*
X276750000Y349125000D01*
D14*
X9300000Y135725000D02*
X6900000Y135725000D01*
X33275000Y131700000D02*
X33275000Y129300000D01*
D15*
X156850000Y349025000D02*
X156850000Y300225000D01*
X71450000Y247525000D02*
X71450000Y198725000D01*
X227250000Y298725000D02*
X227250000Y249925000D01*
X289600000Y300425000D02*
X291200000Y300425000D01*
D14*
X51625000Y388375000D02*
X54025000Y388375000D01*
D15*
X243250000Y349125000D02*
X243250000Y300325000D01*
X184050000Y349025000D02*
X185650000Y349025000D01*
D14*
X42100000Y351075000D02*
X42050000Y351025000D01*
D15*
X236850000Y300325000D02*
X238450000Y300325000D01*
X282550000Y198825000D02*
X282550000Y247625000D01*
X76250000Y247525000D02*
X74650000Y247525000D01*
X161050000Y247525000D02*
X161050000Y198725000D01*
X164250000Y198725000D02*
X162650000Y198725000D01*
X277750000Y247625000D02*
X277750000Y198825000D01*
D14*
X54900000Y196775000D02*
X54875000Y196800000D01*
X64500000Y93725000D02*
X62100000Y93725000D01*
D15*
X183450000Y198725000D02*
X181850000Y198725000D01*
D14*
X27650000Y390625000D02*
X27625000Y390650000D01*
D15*
X100250000Y198725000D02*
X98650000Y198725000D01*
X135450000Y247525000D02*
X135450000Y198725000D01*
X200050000Y300225000D02*
X200050000Y349025000D01*
D14*
X93275000Y155600000D02*
X93275000Y196800000D01*
X136500000Y93725000D02*
X136500000Y156075000D01*
D15*
X65650000Y349025000D02*
X67250000Y349025000D01*
X125850000Y198725000D02*
X124250000Y198725000D01*
X191450000Y247525000D02*
X189850000Y247525000D01*
X42650000Y198725000D02*
X41050000Y198725000D01*
X121650000Y349025000D02*
X121650000Y300225000D01*
X201650000Y300225000D02*
X203250000Y300225000D01*
X276150000Y247625000D02*
X274550000Y247625000D01*
D14*
X237300000Y93525000D02*
X234900000Y93525000D01*
D15*
X78450000Y300225000D02*
X78450000Y349025000D01*
X303450000Y198625000D02*
X303450000Y247450000D01*
X156250000Y247525000D02*
X154650000Y247525000D01*
D14*
X264700000Y140325000D02*
X264700000Y137925000D01*
X242075000Y93550000D02*
X242100000Y93525000D01*
X222875000Y160600000D02*
X222900000Y160575000D01*
X287700000Y94380000D02*
X290100000Y96780000D01*
X270948200Y122726400D02*
X270948200Y116173200D01*
D15*
X109850000Y247525000D02*
X109850000Y198725000D01*
D14*
X215675000Y196775000D02*
X213275000Y196775000D01*
D15*
X138650000Y198725000D02*
X137050000Y198725000D01*
X20250000Y247550000D02*
X20250000Y198725000D01*
X235250000Y349125000D02*
X236850000Y349125000D01*
X261750000Y247625000D02*
X261750000Y198825000D01*
D14*
X6900000Y174175000D02*
X6900000Y171775000D01*
D15*
X80050000Y300225000D02*
X81650000Y300225000D01*
D14*
X9300000Y147725000D02*
X9300000Y145325000D01*
X251700000Y163125000D02*
X251700000Y158700000D01*
X18900000Y99725000D02*
X21300000Y97325000D01*
X45375000Y140550000D02*
X45375000Y138150000D01*
X39650000Y351025000D02*
X39650000Y377050000D01*
X69300000Y163325000D02*
X69300000Y160975000D01*
X260350000Y417125000D02*
X260350000Y351125000D01*
X219650000Y351025000D02*
X219650000Y411540000D01*
D15*
X278350000Y300325000D02*
X278350000Y349125000D01*
D14*
X146075000Y196800000D02*
X146075000Y160200000D01*
D15*
X279950000Y300325000D02*
X281550000Y300325000D01*
D14*
X46900000Y377125000D02*
X46900000Y351075000D01*
X256475000Y196750000D02*
X258875000Y196750000D01*
X54050000Y351025000D02*
X54050000Y381200000D01*
X261275000Y196750000D02*
X263675000Y196750000D01*
X270875000Y142675000D02*
X270875000Y196750000D01*
X303550000Y351125000D02*
X303550000Y414280000D01*
D15*
X95450000Y247525000D02*
X93850000Y247525000D01*
X32050000Y300225000D02*
X33650000Y300225000D01*
D14*
X219650000Y411540000D02*
X217250000Y413940000D01*
D15*
X93850000Y247525000D02*
X93850000Y198725000D01*
D14*
X273275000Y196750000D02*
X270875000Y196750000D01*
X57300000Y196800000D02*
X57300000Y93725000D01*
X98075000Y196800000D02*
X98075000Y158525000D01*
D15*
X12500000Y301075000D02*
X13350000Y300225000D01*
X204850000Y349025000D02*
X204850000Y300225000D01*
X28850000Y300225000D02*
X30450000Y300225000D01*
D14*
X227675000Y196775000D02*
X227675000Y160575000D01*
X254100000Y93525000D02*
X254100000Y159525000D01*
D15*
X294450000Y298525000D02*
X292850000Y298525000D01*
D14*
X35675000Y129100000D02*
X35675000Y126700000D01*
D15*
X156850000Y300225000D02*
X158450000Y300225000D01*
X124250000Y247525000D02*
X122650000Y247525000D01*
D14*
X50025000Y196725000D02*
X50100000Y196800000D01*
X37975000Y138150000D02*
X37975000Y140550000D01*
X184475000Y196775000D02*
X186875000Y196775000D01*
D15*
X180850000Y300225000D02*
X180850000Y349025000D01*
D14*
X160475000Y196775000D02*
X162875000Y196775000D01*
D15*
X116850000Y300225000D02*
X116850000Y349025000D01*
X36250000Y247525000D02*
X36250000Y198725000D01*
D14*
X39650000Y417025000D02*
X42050000Y417025000D01*
D15*
X98650000Y247525000D02*
X97050000Y247525000D01*
D14*
X18050000Y414625000D02*
X18050000Y351025000D01*
D15*
X131250000Y349025000D02*
X131250000Y300225000D01*
D14*
X238850000Y351125000D02*
X241250000Y351125000D01*
D15*
X195250000Y349025000D02*
X195250000Y300225000D01*
D14*
X110100000Y159750000D02*
X110100000Y163325000D01*
D15*
X140250000Y198725000D02*
X140250000Y247525000D01*
D14*
X220500000Y160200000D02*
X220500000Y163125000D01*
D15*
X255950000Y298725000D02*
X254350000Y298725000D01*
D14*
X6900000Y176575000D02*
X9300000Y176575000D01*
X272325000Y375200000D02*
X272325000Y351150000D01*
D15*
X176050000Y300225000D02*
X177650000Y300225000D01*
X28850000Y349025000D02*
X28850000Y300225000D01*
X73650000Y300225000D02*
X75250000Y300225000D01*
D14*
X16475000Y116550000D02*
X16475000Y196825000D01*
X238850000Y417125000D02*
X238850000Y351125000D01*
D15*
X87450000Y198725000D02*
X85850000Y198725000D01*
X289600000Y349225000D02*
X289600000Y300425000D01*
X252250000Y247625000D02*
X250650000Y247625000D01*
X61850000Y198725000D02*
X60250000Y198725000D01*
D14*
X201275000Y161175000D02*
X201300000Y161150000D01*
D15*
X90650000Y247525000D02*
X90650000Y198725000D01*
D14*
X269700000Y140325000D02*
X272100000Y140325000D01*
D15*
X17650000Y300225000D02*
X17650000Y349025000D01*
X99250000Y349025000D02*
X99250000Y300225000D01*
D14*
X196475000Y160375000D02*
X196500000Y160350000D01*
X126900000Y163325000D02*
X126900000Y159150000D01*
X292475000Y196725000D02*
X292475000Y99575000D01*
D15*
X77850000Y247525000D02*
X77850000Y198725000D01*
X276150000Y198825000D02*
X276150000Y247625000D01*
X268750000Y349125000D02*
X270350000Y349125000D01*
D14*
X218075000Y196775000D02*
X220475000Y196775000D01*
X246875000Y196750000D02*
X249275000Y196750000D01*
X254100000Y159525000D02*
X254100000Y163125000D01*
X88500000Y160600000D02*
X88500000Y93725000D01*
D15*
X288000000Y349225000D02*
X289600000Y349225000D01*
X124850000Y300225000D02*
X126450000Y300225000D01*
D14*
X293875000Y417125000D02*
X293875000Y351200000D01*
X59675000Y157350000D02*
X59700000Y157325000D01*
D15*
X82650000Y198725000D02*
X82650000Y247525000D01*
D14*
X251675000Y196775000D02*
X251675000Y158725000D01*
X46625000Y396275000D02*
X39625000Y396275000D01*
D15*
X244850000Y249925000D02*
X244850000Y298725000D01*
D14*
X179675000Y160400000D02*
X179700000Y160375000D01*
X203675000Y196775000D02*
X203675000Y160325000D01*
X179700000Y160375000D02*
X179700000Y93725000D01*
X9300000Y159725000D02*
X6900000Y159725000D01*
D15*
X189850000Y198725000D02*
X188250000Y198725000D01*
X214450000Y349025000D02*
X214450000Y300225000D01*
X296000000Y300425000D02*
X297600000Y300425000D01*
D14*
X9300000Y130925000D02*
X6900000Y130925000D01*
X274500000Y137925000D02*
X274500000Y137200000D01*
X231650000Y351125000D02*
X231650000Y411774000D01*
D15*
X52850000Y300225000D02*
X52850000Y349025000D01*
X289650000Y249725000D02*
X288050000Y249725000D01*
D14*
X68450000Y351025000D02*
X66050000Y351025000D01*
D15*
X64050000Y349025000D02*
X64050000Y300225000D01*
X217650000Y349025000D02*
X217650000Y300225000D01*
D14*
X189275000Y196775000D02*
X191675000Y196775000D01*
X189275000Y196775000D02*
X189275000Y161200000D01*
X203700000Y163325000D02*
X203700000Y160300000D01*
X294900000Y102000000D02*
X294900000Y196700000D01*
X40475000Y196825000D02*
X42850000Y196825000D01*
D15*
X281550000Y349125000D02*
X283150000Y349125000D01*
X232050000Y298725000D02*
X230450000Y298725000D01*
D14*
X265100000Y351150000D02*
X262750000Y351150000D01*
D15*
X15450000Y198725000D02*
X15450000Y247525000D01*
D14*
X269950000Y351125000D02*
X267550000Y351125000D01*
D15*
X193050000Y198725000D02*
X191450000Y198725000D01*
X148250000Y247525000D02*
X148250000Y198725000D01*
D14*
X9300000Y176575000D02*
X9300000Y174175000D01*
D15*
X250650000Y247625000D02*
X250650000Y198825000D01*
X108850000Y349025000D02*
X108850000Y300225000D01*
D14*
X227700000Y93525000D02*
X225300000Y93525000D01*
X177275000Y196775000D02*
X177275000Y158425000D01*
D15*
X13850000Y198725000D02*
X12250000Y198725000D01*
X250650000Y198825000D02*
X249050000Y198825000D01*
D14*
X69300000Y160975000D02*
X69300000Y93725000D01*
D15*
X41650000Y300225000D02*
X43250000Y300225000D01*
D14*
X298675000Y417125000D02*
X300875000Y417125000D01*
X257950000Y417125000D02*
X255550000Y417125000D01*
X277400000Y385025000D02*
X275400000Y385025000D01*
X50075000Y196825000D02*
X52475000Y196825000D01*
X9300000Y152525000D02*
X9300000Y150125000D01*
D15*
X75250000Y349025000D02*
X76850000Y349025000D01*
X157850000Y247525000D02*
X157850000Y198725000D01*
X241650000Y249925000D02*
X241650000Y298725000D01*
X96050000Y349025000D02*
X96050000Y300225000D01*
D14*
X117275000Y158425000D02*
X117300000Y158400000D01*
D15*
X49050000Y247525000D02*
X49050000Y198725000D01*
X153050000Y198725000D02*
X153050000Y247525000D01*
D14*
X15650000Y412225000D02*
X18050000Y414625000D01*
X45200000Y142650000D02*
X45200000Y196750000D01*
D15*
X19250000Y300225000D02*
X20850000Y300225000D01*
D14*
X210025000Y351075000D02*
X210025000Y417075000D01*
X276307600Y120846800D02*
X279917200Y120846800D01*
D15*
X212850000Y300225000D02*
X212850000Y349025000D01*
X30450000Y349025000D02*
X32050000Y349025000D01*
X76250000Y198725000D02*
X76250000Y247525000D01*
X164850000Y349025000D02*
X166450000Y349025000D01*
X191450000Y198725000D02*
X191450000Y247525000D01*
X225050000Y247625000D02*
X225050000Y198825000D01*
D14*
X66050000Y351025000D02*
X66050000Y417175000D01*
X170075000Y161150000D02*
X170100000Y161125000D01*
D15*
X15450000Y247525000D02*
X13850000Y247525000D01*
X289050000Y198625000D02*
X290650000Y198625000D01*
D14*
X51650000Y383575000D02*
X51650000Y381175000D01*
D15*
X67250000Y349025000D02*
X67250000Y300225000D01*
D14*
X205225000Y417075000D02*
X202825000Y417075000D01*
X246875000Y196775000D02*
X246875000Y158125000D01*
D15*
X238450000Y349125000D02*
X240050000Y349125000D01*
D14*
X291475000Y417125000D02*
X289075000Y417125000D01*
X54875000Y196800000D02*
X57300000Y196800000D01*
D15*
X65050000Y198725000D02*
X63450000Y198725000D01*
D14*
X227700000Y160550000D02*
X227700000Y93525000D01*
D15*
X17650000Y349025000D02*
X19250000Y349025000D01*
X52850000Y349025000D02*
X54450000Y349025000D01*
D14*
X304500000Y109620000D02*
X304500000Y196700000D01*
X236450000Y351125000D02*
X236450000Y417125000D01*
D15*
X266550000Y198825000D02*
X266550000Y247625000D01*
X218650000Y247625000D02*
X218650000Y198825000D01*
X238450000Y300325000D02*
X238450000Y349125000D01*
X243250000Y300325000D02*
X244850000Y300325000D01*
D14*
X267550000Y394375000D02*
X267550000Y417125000D01*
X172500000Y161600000D02*
X172500000Y163325000D01*
D15*
X180250000Y198725000D02*
X178650000Y198725000D01*
X167450000Y198725000D02*
X165850000Y198725000D01*
X65050000Y247525000D02*
X65050000Y198725000D01*
D14*
X282900000Y128250000D02*
X282900000Y196700000D01*
D15*
X169650000Y349025000D02*
X169650000Y300225000D01*
D14*
X107700000Y162050000D02*
X107700000Y93725000D01*
D15*
X46450000Y349025000D02*
X48050000Y349025000D01*
X252150000Y198825000D02*
X250550000Y198825000D01*
X136050000Y300225000D02*
X136050000Y349025000D01*
D14*
X246050000Y351125000D02*
X246050000Y417125000D01*
D15*
X196850000Y300225000D02*
X196850000Y349025000D01*
D14*
X50100000Y196800000D02*
X50075000Y196825000D01*
D15*
X220250000Y247625000D02*
X218650000Y247625000D01*
X252850000Y249925000D02*
X251250000Y249925000D01*
X267150000Y349125000D02*
X267150000Y300325000D01*
X28250000Y198725000D02*
X28250000Y247525000D01*
X76850000Y349025000D02*
X76850000Y300225000D01*
X17050000Y198725000D02*
X15450000Y198725000D01*
X97050000Y247525000D02*
X97050000Y198725000D01*
D14*
X51650000Y393775000D02*
X54050000Y393775000D01*
X158075000Y124750000D02*
X160475000Y124750000D01*
X6900000Y169375000D02*
X6900000Y166975000D01*
D15*
X260150000Y198825000D02*
X260150000Y247625000D01*
D14*
X20450000Y351025000D02*
X20450000Y414625000D01*
D15*
X297650000Y249725000D02*
X297650000Y298525000D01*
X252850000Y298725000D02*
X252850000Y249925000D01*
D14*
X38075000Y196825000D02*
X38075000Y142750000D01*
X66900000Y162025000D02*
X66900000Y163325000D01*
X9300000Y140525000D02*
X6900000Y140525000D01*
X301150000Y351125000D02*
X303550000Y351125000D01*
X56425000Y417050000D02*
X56450000Y417025000D01*
D15*
X263950000Y249925000D02*
X262350000Y249925000D01*
X197850000Y198725000D02*
X197850000Y247525000D01*
D14*
X9300000Y114125000D02*
X9300000Y111725000D01*
X32450000Y417025000D02*
X32450000Y406500000D01*
X153275000Y196800000D02*
X153275000Y124700000D01*
X229250000Y410199500D02*
X229250000Y351125000D01*
D15*
X152050000Y300225000D02*
X152050000Y349025000D01*
D14*
X52500000Y134925000D02*
X54900000Y134925000D01*
X237275000Y196775000D02*
X237275000Y93550000D01*
D15*
X285650000Y247425000D02*
X285650000Y198625000D01*
D14*
X269950000Y417125000D02*
X269975000Y417100000D01*
D15*
X142450000Y300225000D02*
X142450000Y349025000D01*
D14*
X102900000Y93725000D02*
X100500000Y93725000D01*
X122075000Y161750000D02*
X122100000Y161725000D01*
X11675000Y196825000D02*
X14075000Y196825000D01*
X54900000Y134925000D02*
X54900000Y132525000D01*
D15*
X153650000Y349025000D02*
X153650000Y300225000D01*
D14*
X39625000Y396275000D02*
X39625000Y393875000D01*
X170100000Y93725000D02*
X167700000Y93725000D01*
D15*
X251250000Y300325000D02*
X251250000Y349125000D01*
X20850000Y349025000D02*
X22450000Y349025000D01*
X133850000Y247500000D02*
X132250000Y247500000D01*
D14*
X225300000Y161550000D02*
X225300000Y163125000D01*
D15*
X241050000Y198825000D02*
X239450000Y198825000D01*
D14*
X267525000Y375200000D02*
X265125000Y375200000D01*
X76475000Y162500000D02*
X76500000Y162475000D01*
X131700000Y163325000D02*
X131700000Y158725000D01*
D15*
X72050000Y300225000D02*
X72050000Y349025000D01*
D14*
X206100000Y93725000D02*
X206100000Y161225000D01*
D15*
X237850000Y198825000D02*
X236250000Y198825000D01*
D14*
X6900000Y126125000D02*
X6900000Y123725000D01*
X35675000Y131700000D02*
X33275000Y131700000D01*
X9300000Y174175000D02*
X6900000Y174175000D01*
X194100000Y163325000D02*
X194100000Y158775000D01*
X273539000Y121761200D02*
X273894600Y122116800D01*
X184500000Y163325000D02*
X184500000Y159850000D01*
X217250000Y351025000D02*
X214850000Y351025000D01*
D15*
X40050000Y300225000D02*
X40050000Y349025000D01*
D14*
X234900000Y196725000D02*
X234850000Y196775000D01*
X86100000Y93725000D02*
X86100000Y161175000D01*
D15*
X242650000Y198825000D02*
X242650000Y247625000D01*
X252150000Y247625000D02*
X252150000Y198825000D01*
D14*
X304500000Y196700000D02*
X305975000Y198175000D01*
D15*
X177650000Y349025000D02*
X179250000Y349025000D01*
D14*
X61250000Y417150000D02*
X61200000Y417200000D01*
X105275000Y196800000D02*
X105275000Y161350000D01*
X9300000Y126125000D02*
X6900000Y126125000D01*
X69300000Y93725000D02*
X66900000Y93725000D01*
D15*
X249050000Y198825000D02*
X249050000Y247625000D01*
D14*
X51625000Y390775000D02*
X54025000Y390775000D01*
D15*
X287450000Y198625000D02*
X287450000Y247425000D01*
D14*
X182100000Y159425000D02*
X182100000Y163325000D01*
X98075000Y158525000D02*
X98100000Y158500000D01*
D15*
X254350000Y298725000D02*
X254350000Y249925000D01*
D14*
X126875000Y159175000D02*
X126900000Y159150000D01*
X46850000Y417025000D02*
X46850000Y396500000D01*
D15*
X113050000Y198725000D02*
X111450000Y198725000D01*
X161650000Y349025000D02*
X163250000Y349025000D01*
D14*
X170100000Y163325000D02*
X170100000Y161125000D01*
X6900000Y116525000D02*
X6900000Y114125000D01*
D15*
X92250000Y198725000D02*
X92250000Y247525000D01*
D14*
X81300000Y161275000D02*
X81300000Y163325000D01*
D15*
X255350000Y198825000D02*
X253750000Y198825000D01*
X121050000Y247525000D02*
X119450000Y247525000D01*
D14*
X66050000Y417175000D02*
X66000000Y417225000D01*
X222875000Y196775000D02*
X222875000Y160600000D01*
X44450000Y351025000D02*
X44450000Y377075000D01*
D15*
X226650000Y198825000D02*
X226650000Y247625000D01*
X134450000Y300225000D02*
X136050000Y300225000D01*
X38450000Y300225000D02*
X40050000Y300225000D01*
X274550000Y247625000D02*
X274550000Y198825000D01*
D14*
X148475000Y196800000D02*
X146075000Y196800000D01*
X275300000Y140650000D02*
X275675000Y140650000D01*
D15*
X166450000Y300225000D02*
X168050000Y300225000D01*
D14*
X39625000Y393875000D02*
X36925000Y391175000D01*
X256475000Y196775000D02*
X258875000Y196775000D01*
D15*
X41050000Y247525000D02*
X39450000Y247525000D01*
X208050000Y300225000D02*
X209650000Y300225000D01*
D14*
X93300000Y163325000D02*
X93300000Y155575000D01*
D15*
X251250000Y249925000D02*
X251250000Y298725000D01*
X202650000Y198725000D02*
X201050000Y198725000D01*
D14*
X45275000Y196825000D02*
X47675000Y196825000D01*
X186875000Y196775000D02*
X186875000Y158175000D01*
X81275000Y161300000D02*
X81300000Y161275000D01*
X162875000Y122725000D02*
X165275000Y122725000D01*
X264500000Y378175000D02*
X277075000Y378175000D01*
D15*
X21850000Y247550000D02*
X20250000Y247550000D01*
X262350000Y300325000D02*
X262350000Y349125000D01*
D14*
X275675000Y140650000D02*
X275675000Y196750000D01*
D15*
X53850000Y247525000D02*
X52250000Y247525000D01*
X221850000Y247625000D02*
X221850000Y198825000D01*
D14*
X146100000Y93725000D02*
X143700000Y93725000D01*
D15*
X218650000Y198825000D02*
X217050000Y198825000D01*
D14*
X33275000Y134100000D02*
X35675000Y134100000D01*
X76475000Y196800000D02*
X76475000Y162500000D01*
D15*
X269750000Y198825000D02*
X269750000Y247625000D01*
D14*
X203700000Y93725000D02*
X201300000Y93725000D01*
D15*
X160050000Y349025000D02*
X160050000Y300225000D01*
D14*
X138850000Y196800000D02*
X136475000Y196800000D01*
X54875000Y196750000D02*
X54900000Y196775000D01*
X30050000Y404675000D02*
X30050000Y417025000D01*
D15*
X121050000Y198725000D02*
X121050000Y247525000D01*
D14*
X179700000Y163325000D02*
X179700000Y160375000D01*
D15*
X50650000Y247525000D02*
X49050000Y247525000D01*
D14*
X148475000Y160450000D02*
X148500000Y160425000D01*
D15*
X182450000Y349025000D02*
X182450000Y300225000D01*
X249650000Y249925000D02*
X248050000Y249925000D01*
D14*
X277400000Y378175000D02*
X277400000Y380575000D01*
D15*
X99250000Y300225000D02*
X100850000Y300225000D01*
X220850000Y300325000D02*
X222450000Y300325000D01*
D14*
X167700000Y160925000D02*
X167700000Y163325000D01*
D15*
X212250000Y247525000D02*
X212250000Y198725000D01*
D14*
X86075000Y196775000D02*
X86075000Y161200000D01*
D15*
X27250000Y349025000D02*
X28850000Y349025000D01*
D14*
X208500000Y93725000D02*
X206100000Y93725000D01*
X165325000Y115025000D02*
X162925000Y115025000D01*
X195625000Y351075000D02*
X195625000Y417075000D01*
D15*
X81050000Y198725000D02*
X79450000Y198725000D01*
D17*
X8950000Y299525000D02*
X8950000Y415125000D01*
D15*
X252750000Y349125000D02*
X254350000Y349125000D01*
X145050000Y198725000D02*
X143450000Y198725000D01*
D14*
X297275000Y103517500D02*
X299700000Y105942500D01*
D15*
X141850000Y247525000D02*
X141850000Y198725000D01*
X169650000Y300225000D02*
X171250000Y300225000D01*
D14*
X110100000Y93725000D02*
X110100000Y159750000D01*
D15*
X236250000Y198825000D02*
X236250000Y247625000D01*
D14*
X292475000Y99575000D02*
X294900000Y102000000D01*
X253250000Y351125000D02*
X255650000Y351125000D01*
D15*
X271950000Y300325000D02*
X271950000Y349125000D01*
X140850000Y349025000D02*
X140850000Y300225000D01*
D14*
X280500000Y121429600D02*
X280500000Y126125000D01*
X290075000Y196725000D02*
X292475000Y196725000D01*
D15*
X265550000Y349125000D02*
X267150000Y349125000D01*
D14*
X251675000Y158725000D02*
X251700000Y158700000D01*
X269975000Y394350000D02*
X269950000Y394325000D01*
X134100000Y156625000D02*
X134100000Y93725000D01*
D15*
X44850000Y349025000D02*
X44850000Y300225000D01*
D14*
X35575000Y140550000D02*
X35675000Y140650000D01*
D15*
X276750000Y300325000D02*
X278350000Y300325000D01*
D14*
X202825000Y417075000D02*
X202825000Y351075000D01*
X57300000Y93725000D02*
X59700000Y93725000D01*
X122100000Y163325000D02*
X122100000Y161725000D01*
X110075000Y159775000D02*
X110100000Y159750000D01*
X112475000Y151400000D02*
X112500000Y151375000D01*
X202850000Y351025000D02*
X200450000Y351025000D01*
D15*
X160050000Y300225000D02*
X161650000Y300225000D01*
D14*
X255550000Y417125000D02*
X255550000Y351125000D01*
X150875000Y156875000D02*
X150875000Y196800000D01*
X184475000Y196775000D02*
X184475000Y159875000D01*
X9300000Y178975000D02*
X6900000Y178975000D01*
D15*
X279350000Y247625000D02*
X277750000Y247625000D01*
D14*
X230075000Y196775000D02*
X230075000Y144025000D01*
X64475000Y196800000D02*
X66875000Y196800000D01*
D15*
X303450000Y247450000D02*
X304050000Y248050000D01*
D14*
X265125000Y375200000D02*
X265100000Y375175000D01*
X244500000Y196750000D02*
X244500000Y93525000D01*
X267525000Y394350000D02*
X267550000Y394375000D01*
D15*
X230450000Y349125000D02*
X230450000Y300325000D01*
D14*
X215675000Y196775000D02*
X215675000Y160700000D01*
D15*
X153050000Y247525000D02*
X151450000Y247525000D01*
X246450000Y300325000D02*
X248050000Y300325000D01*
D14*
X275675000Y127453200D02*
X270948200Y122726400D01*
D15*
X69850000Y198725000D02*
X69850000Y247525000D01*
D14*
X76500000Y93725000D02*
X76500000Y162475000D01*
X8450000Y248625000D02*
X8450000Y295825000D01*
D15*
X233650000Y249925000D02*
X232050000Y249925000D01*
X280950000Y247625000D02*
X280950000Y198825000D01*
X255950000Y249925000D02*
X255950000Y298725000D01*
D14*
X47625000Y142650000D02*
X50025000Y142650000D01*
D15*
X232050000Y349125000D02*
X233650000Y349125000D01*
X267150000Y298725000D02*
X267150000Y249925000D01*
D14*
X54875000Y137325000D02*
X54875000Y138250000D01*
D15*
X279350000Y198825000D02*
X279350000Y247625000D01*
X49650000Y300225000D02*
X49650000Y349025000D01*
X62450000Y300225000D02*
X62450000Y349025000D01*
X125850000Y247525000D02*
X125850000Y198725000D01*
D14*
X102900000Y161250000D02*
X102900000Y93725000D01*
X25250000Y396500000D02*
X25225000Y396475000D01*
D15*
X301850000Y247425000D02*
X301850000Y198625000D01*
X37850000Y198725000D02*
X37850000Y247525000D01*
X278350000Y349125000D02*
X279950000Y349125000D01*
D14*
X35675000Y126700000D02*
X33275000Y126700000D01*
X9300000Y118925000D02*
X9300000Y116525000D01*
X27650000Y404675000D02*
X27625000Y404650000D01*
D15*
X228850000Y298725000D02*
X227250000Y298725000D01*
D14*
X303550000Y414280000D02*
X305950000Y411880000D01*
D15*
X220250000Y198825000D02*
X220250000Y247625000D01*
D14*
X28100000Y396450000D02*
X28100000Y394050000D01*
D15*
X184050000Y300225000D02*
X184050000Y349025000D01*
X279950000Y249925000D02*
X278350000Y249925000D01*
X284750000Y249925000D02*
X284750000Y298725000D01*
X213850000Y198725000D02*
X213850000Y247525000D01*
D14*
X64500000Y163325000D02*
X64500000Y159450000D01*
X124500000Y159975000D02*
X124500000Y163325000D01*
X255550000Y351125000D02*
X253150000Y351125000D01*
X83700000Y163325000D02*
X83700000Y159975000D01*
D15*
X220850000Y249925000D02*
X219250000Y249925000D01*
D16*
X23900980Y422525000D02*
X20950000Y422525000D01*
D14*
X136475000Y196800000D02*
X136475000Y156100000D01*
D15*
X115250000Y349025000D02*
X115250000Y300225000D01*
X31450000Y247525000D02*
X29850000Y247525000D01*
D14*
X54050000Y381200000D02*
X54025000Y381225000D01*
X305975000Y396650000D02*
X305975000Y397900000D01*
D15*
X219250000Y300225000D02*
X219250000Y349025000D01*
D14*
X262750000Y394325000D02*
X262725000Y394350000D01*
X9300000Y121325000D02*
X6900000Y121325000D01*
D15*
X240050000Y300325000D02*
X241650000Y300325000D01*
D14*
X272350000Y417125000D02*
X269950000Y417125000D01*
D15*
X248050000Y300325000D02*
X248050000Y349125000D01*
D14*
X30050000Y351025000D02*
X27650000Y351025000D01*
X88500000Y93725000D02*
X86100000Y93725000D01*
D15*
X23450000Y247550000D02*
X23450000Y198725000D01*
D14*
X265150000Y417125000D02*
X265175000Y417100000D01*
D15*
X249650000Y298725000D02*
X249650000Y249925000D01*
D14*
X242075000Y196775000D02*
X244475000Y196775000D01*
X258875000Y196775000D02*
X258875000Y153550000D01*
D15*
X209050000Y198725000D02*
X207450000Y198725000D01*
D14*
X22850000Y351025000D02*
X25250000Y351025000D01*
D15*
X80050000Y349025000D02*
X80050000Y300225000D01*
D14*
X95675000Y196800000D02*
X95675000Y157650000D01*
X9300000Y181375000D02*
X9300000Y178975000D01*
X71700000Y196775000D02*
X71675000Y196800000D01*
X22850000Y417025000D02*
X22850000Y351025000D01*
D15*
X239450000Y198825000D02*
X239450000Y247625000D01*
X236850000Y349125000D02*
X236850000Y300325000D01*
D14*
X218100000Y163125000D02*
X218100000Y159200000D01*
D15*
X283150000Y249925000D02*
X281550000Y249925000D01*
X140850000Y300225000D02*
X142450000Y300225000D01*
D14*
X251700000Y93525000D02*
X249300000Y93525000D01*
X267525000Y351150000D02*
X267550000Y351125000D01*
D15*
X153650000Y300225000D02*
X155250000Y300225000D01*
X57650000Y349025000D02*
X57650000Y300225000D01*
D14*
X254075000Y196750000D02*
X254075000Y159550000D01*
D15*
X122650000Y198725000D02*
X121050000Y198725000D01*
D14*
X274750000Y375150000D02*
X274725000Y375175000D01*
D15*
X231450000Y247625000D02*
X231450000Y198825000D01*
X229850000Y247625000D02*
X228250000Y247625000D01*
D14*
X274750000Y351125000D02*
X272350000Y351125000D01*
D15*
X222450000Y349125000D02*
X224050000Y349125000D01*
X271950000Y349125000D02*
X273550000Y349125000D01*
X245850000Y198825000D02*
X245850000Y247625000D01*
X302450000Y298025000D02*
X302450000Y302225000D01*
D14*
X112500000Y151375000D02*
X112500000Y93725000D01*
X218075000Y159225000D02*
X218100000Y159200000D01*
X63650000Y351025000D02*
X61250000Y351025000D01*
X196475000Y196775000D02*
X196475000Y160375000D01*
D15*
X86450000Y349025000D02*
X86450000Y300225000D01*
X196250000Y198725000D02*
X194650000Y198725000D01*
D14*
X134100000Y93725000D02*
X136500000Y93725000D01*
X285275000Y128275000D02*
X285300000Y128250000D01*
D15*
X41650000Y349025000D02*
X41650000Y300225000D01*
X113650000Y349025000D02*
X115250000Y349025000D01*
D14*
X37975000Y140550000D02*
X35575000Y140550000D01*
D15*
X284150000Y198825000D02*
X282550000Y198825000D01*
X83250000Y349025000D02*
X83250000Y300225000D01*
X137050000Y247525000D02*
X135450000Y247525000D01*
X216050000Y349025000D02*
X217650000Y349025000D01*
D14*
X277400000Y380575000D02*
X275400000Y380575000D01*
X302075000Y107195000D02*
X304500000Y109620000D01*
X6900000Y111725000D02*
X11700000Y106925000D01*
X262750000Y417125000D02*
X260350000Y417125000D01*
X278050000Y128275000D02*
X280450000Y128275000D01*
D15*
X255950000Y300325000D02*
X255950000Y349125000D01*
X100850000Y300225000D02*
X100850000Y349025000D01*
D14*
X40375000Y138150000D02*
X37975000Y138150000D01*
D15*
X273550000Y300325000D02*
X275150000Y300325000D01*
X220850000Y298725000D02*
X220850000Y249925000D01*
D14*
X42975000Y140550000D02*
X40575000Y140550000D01*
X9250000Y191325000D02*
X9250000Y188925000D01*
D15*
X171250000Y349025000D02*
X172850000Y349025000D01*
X51250000Y300225000D02*
X52850000Y300225000D01*
D14*
X14100000Y104525000D02*
X16500000Y102125000D01*
X47675000Y142700000D02*
X47625000Y142650000D01*
X122075000Y196800000D02*
X122075000Y161750000D01*
X270948200Y116173200D02*
X273539000Y118764000D01*
X51650000Y388375000D02*
X51650000Y385975000D01*
X302075000Y196725000D02*
X302075000Y107195000D01*
D15*
X298650000Y247425000D02*
X298650000Y198625000D01*
D14*
X30050000Y404675000D02*
X30025000Y404650000D01*
X69275000Y196800000D02*
X69275000Y161000000D01*
D15*
X300250000Y198625000D02*
X300250000Y247425000D01*
X128050000Y349025000D02*
X128050000Y300225000D01*
X84850000Y300225000D02*
X84850000Y349025000D01*
D14*
X170075000Y196775000D02*
X172475000Y196775000D01*
D15*
X74650000Y247525000D02*
X74650000Y198725000D01*
X44850000Y300225000D02*
X46450000Y300225000D01*
D14*
X273275000Y196750000D02*
X273275000Y142675000D01*
D15*
X114650000Y198725000D02*
X114650000Y247525000D01*
D14*
X269950000Y351125000D02*
X269950000Y375175000D01*
X49250000Y377125000D02*
X49250000Y351025000D01*
D15*
X70450000Y300225000D02*
X72050000Y300225000D01*
X264950000Y198825000D02*
X263350000Y198825000D01*
D14*
X51650000Y417025000D02*
X51650000Y393775000D01*
D15*
X181850000Y247525000D02*
X180250000Y247525000D01*
D14*
X189300000Y161175000D02*
X189300000Y93725000D01*
X267525000Y375200000D02*
X267525000Y351150000D01*
X242100000Y196750000D02*
X242075000Y196775000D01*
X261275000Y137925000D02*
X261275000Y196750000D01*
X143700000Y93725000D02*
X143700000Y159625000D01*
X33275000Y129100000D02*
X35675000Y129100000D01*
D15*
X287250000Y198625000D02*
X285650000Y198625000D01*
X154650000Y247525000D02*
X154650000Y198725000D01*
D14*
X42975000Y138150000D02*
X42975000Y140550000D01*
D15*
X76850000Y300225000D02*
X78450000Y300225000D01*
X238450000Y298725000D02*
X236850000Y298725000D01*
X124850000Y349025000D02*
X124850000Y300225000D01*
D14*
X124475000Y160000000D02*
X124500000Y159975000D01*
D15*
X268750000Y298725000D02*
X267150000Y298725000D01*
D14*
X42050000Y351025000D02*
X44450000Y351025000D01*
D16*
X33450000Y428025000D02*
X33450000Y427025000D01*
D14*
X146100000Y163325000D02*
X146100000Y160175000D01*
X234900000Y93525000D02*
X234900000Y196725000D01*
D15*
X261750000Y198825000D02*
X260150000Y198825000D01*
D14*
X9300000Y145325000D02*
X6900000Y145325000D01*
X54025000Y417050000D02*
X56425000Y417050000D01*
X213300000Y159750000D02*
X213300000Y163325000D01*
D15*
X205850000Y198725000D02*
X204250000Y198725000D01*
D14*
X287675000Y153525000D02*
X287700000Y153500000D01*
X56450000Y351025000D02*
X58850000Y351025000D01*
D16*
X25900000Y432525000D02*
X28950000Y432525000D01*
D14*
X198025000Y417075000D02*
X198025000Y351075000D01*
X249275000Y156000000D02*
X249300000Y155975000D01*
D15*
X149850000Y198725000D02*
X149850000Y247525000D01*
X209650000Y300225000D02*
X209650000Y349025000D01*
X128050000Y300225000D02*
X129650000Y300225000D01*
X129650000Y300225000D02*
X129650000Y349025000D01*
D14*
X265150000Y394325000D02*
X262750000Y394325000D01*
D15*
X268750000Y300325000D02*
X268750000Y349125000D01*
D14*
X117275000Y196800000D02*
X117275000Y158425000D01*
D15*
X185650000Y300225000D02*
X187250000Y300225000D01*
X132250000Y198725000D02*
X130650000Y198725000D01*
D14*
X49250000Y417025000D02*
X49250000Y393150000D01*
D15*
X284750000Y349125000D02*
X286350000Y349125000D01*
X129050000Y247500000D02*
X129050000Y198700000D01*
D14*
X266075000Y142675000D02*
X263675000Y142675000D01*
X52500000Y132525000D02*
X52500000Y130125000D01*
X6900000Y140525000D02*
X6900000Y138125000D01*
D15*
X84250000Y198725000D02*
X82650000Y198725000D01*
X39450000Y247525000D02*
X39450000Y198725000D01*
X13350000Y300225000D02*
X17650000Y300225000D01*
D14*
X196500000Y93725000D02*
X196500000Y160350000D01*
X225300000Y93525000D02*
X225300000Y161550000D01*
X78875000Y158650000D02*
X78900000Y158625000D01*
D15*
X129050000Y198725000D02*
X127450000Y198725000D01*
D14*
X248450000Y417125000D02*
X248450000Y351125000D01*
X74075000Y196800000D02*
X74075000Y160475000D01*
D15*
X285750000Y247625000D02*
X284150000Y247625000D01*
D14*
X148475000Y196800000D02*
X148475000Y160450000D01*
D15*
X20850000Y300225000D02*
X20850000Y349025000D01*
D14*
X301150000Y416850000D02*
X301150000Y351125000D01*
X258875000Y153550000D02*
X258900000Y153525000D01*
X231650000Y411774000D02*
X234050000Y414174000D01*
X215700000Y160675000D02*
X215700000Y163325000D01*
X213275000Y159775000D02*
X213300000Y159750000D01*
X9300000Y164575000D02*
X6900000Y164575000D01*
X42800000Y142650000D02*
X45200000Y142650000D01*
D15*
X240050000Y349125000D02*
X240050000Y300325000D01*
X164250000Y247525000D02*
X164250000Y198725000D01*
D14*
X265125000Y351125000D02*
X265100000Y351150000D01*
X40375000Y142650000D02*
X40475000Y142750000D01*
D15*
X236850000Y298725000D02*
X236850000Y249925000D01*
D14*
X282900000Y196700000D02*
X282875000Y196725000D01*
D17*
X33450000Y422825000D02*
X33450000Y427025000D01*
D14*
X265150000Y417075000D02*
X265150000Y394325000D01*
X279917200Y120846800D02*
X280500000Y121429600D01*
X9250000Y186325000D02*
X9250000Y183925000D01*
D15*
X85850000Y247525000D02*
X84250000Y247525000D01*
D14*
X218075000Y196775000D02*
X218075000Y159225000D01*
D15*
X68850000Y300225000D02*
X68850000Y349025000D01*
D14*
X62075000Y196800000D02*
X59675000Y196800000D01*
D15*
X222450000Y249925000D02*
X222450000Y298725000D01*
X302450000Y249725000D02*
X300850000Y249725000D01*
X232050000Y249925000D02*
X232050000Y298725000D01*
D14*
X62100000Y196775000D02*
X62075000Y196800000D01*
X273275000Y142675000D02*
X275300000Y140650000D01*
X146075000Y160200000D02*
X146100000Y160175000D01*
X222050000Y410410000D02*
X224450000Y408010000D01*
X280475000Y196750000D02*
X280475000Y128300000D01*
D15*
X112050000Y349025000D02*
X112050000Y300225000D01*
X141850000Y198725000D02*
X140250000Y198725000D01*
X263950000Y300325000D02*
X265550000Y300325000D01*
D14*
X74100000Y163325000D02*
X74100000Y160450000D01*
D15*
X258550000Y247625000D02*
X258550000Y198825000D01*
D14*
X9300000Y142925000D02*
X9300000Y140525000D01*
X222900000Y160575000D02*
X222900000Y93525000D01*
D15*
X64050000Y300225000D02*
X65650000Y300225000D01*
D14*
X119675000Y196800000D02*
X119675000Y160250000D01*
X167675000Y160950000D02*
X167700000Y160925000D01*
D15*
X262350000Y298725000D02*
X260750000Y298725000D01*
X139250000Y349025000D02*
X140850000Y349025000D01*
D14*
X267550000Y417125000D02*
X265150000Y417125000D01*
X107675000Y196800000D02*
X110075000Y196800000D01*
X18900000Y196800000D02*
X18900000Y99725000D01*
D15*
X96050000Y300225000D02*
X97650000Y300225000D01*
X190450000Y300225000D02*
X190450000Y349025000D01*
D14*
X196500000Y160350000D02*
X196500000Y163325000D01*
X126875000Y196800000D02*
X129275000Y196800000D01*
X59700000Y157325000D02*
X59700000Y160550000D01*
D15*
X289450000Y249725000D02*
X287850000Y249725000D01*
X60850000Y300225000D02*
X62450000Y300225000D01*
X279950000Y349125000D02*
X279950000Y300325000D01*
D14*
X119675000Y160250000D02*
X119700000Y160225000D01*
X275675000Y196750000D02*
X278050000Y196750000D01*
D15*
X36850000Y300225000D02*
X36850000Y349025000D01*
X145050000Y247525000D02*
X145050000Y198725000D01*
D14*
X69275000Y161000000D02*
X69300000Y160975000D01*
X42050000Y398725000D02*
X44450000Y398725000D01*
X191700000Y93725000D02*
X191700000Y156150000D01*
X198875000Y159700000D02*
X198900000Y159675000D01*
D15*
X266550000Y247625000D02*
X264950000Y247625000D01*
X159450000Y198725000D02*
X159450000Y247525000D01*
X257550000Y300325000D02*
X259150000Y300325000D01*
D14*
X291550000Y351125000D02*
X291550000Y417050000D01*
X282900000Y128250000D02*
X285300000Y128250000D01*
D15*
X110450000Y349025000D02*
X112050000Y349025000D01*
X24050000Y349025000D02*
X25650000Y349025000D01*
D14*
X248450000Y351125000D02*
X250850000Y351125000D01*
X32450000Y406500000D02*
X34850000Y408900000D01*
X9300000Y116525000D02*
X6900000Y116525000D01*
X68450000Y417200000D02*
X68450000Y351025000D01*
X234050000Y351125000D02*
X236450000Y351125000D01*
X78900000Y93725000D02*
X76500000Y93725000D01*
D15*
X89650000Y349025000D02*
X89650000Y300225000D01*
X33650000Y300225000D02*
X33650000Y349025000D01*
X138650000Y247525000D02*
X138650000Y198725000D01*
X282550000Y247625000D02*
X280950000Y247625000D01*
X18650000Y198725000D02*
X18650000Y247550000D01*
D14*
X264700000Y137925000D02*
X261275000Y137925000D01*
X177300000Y93725000D02*
X177300000Y158400000D01*
D15*
X201050000Y198725000D02*
X201050000Y247525000D01*
D14*
X47675000Y196825000D02*
X47675000Y142700000D01*
D15*
X185650000Y349025000D02*
X185650000Y300225000D01*
X237850000Y247625000D02*
X237850000Y198825000D01*
D14*
X76500000Y162475000D02*
X76500000Y163325000D01*
D15*
X244250000Y198825000D02*
X242650000Y198825000D01*
X123250000Y300225000D02*
X123250000Y349025000D01*
X81650000Y300225000D02*
X81650000Y349025000D01*
D14*
X62075000Y196825000D02*
X59675000Y196825000D01*
D15*
X103450000Y198725000D02*
X101850000Y198725000D01*
D14*
X224450000Y351125000D02*
X226850000Y351125000D01*
X83700000Y159975000D02*
X83700000Y93725000D01*
D15*
X246450000Y249925000D02*
X244850000Y249925000D01*
X173850000Y247525000D02*
X173850000Y198725000D01*
X162650000Y247525000D02*
X161050000Y247525000D01*
D14*
X44450000Y398725000D02*
X44450000Y417025000D01*
D15*
X29850000Y198725000D02*
X28250000Y198725000D01*
D14*
X78900000Y158625000D02*
X78900000Y93725000D01*
X46850000Y396500000D02*
X46625000Y396275000D01*
D15*
X112050000Y300225000D02*
X113650000Y300225000D01*
X228850000Y349125000D02*
X230450000Y349125000D01*
D14*
X107700000Y163325000D02*
X107700000Y162050000D01*
D15*
X243250000Y298725000D02*
X243250000Y249925000D01*
D14*
X6850000Y183925000D02*
X6850000Y181525000D01*
D15*
X90650000Y198725000D02*
X89050000Y198725000D01*
X257550000Y298725000D02*
X257550000Y249925000D01*
D14*
X136500000Y163325000D02*
X136500000Y156075000D01*
D15*
X32050000Y349025000D02*
X32050000Y300225000D01*
X81050000Y247525000D02*
X81050000Y198725000D01*
X126450000Y349025000D02*
X128050000Y349025000D01*
X170650000Y247525000D02*
X170650000Y198725000D01*
X158450000Y349025000D02*
X160050000Y349025000D01*
X145650000Y300225000D02*
X145650000Y349025000D01*
X269750000Y247625000D02*
X268150000Y247625000D01*
X174450000Y349025000D02*
X176050000Y349025000D01*
X290650000Y198625000D02*
X290650000Y247425000D01*
D14*
X182100000Y93725000D02*
X182100000Y159425000D01*
D15*
X207450000Y198725000D02*
X207450000Y247525000D01*
X126450000Y300225000D02*
X126450000Y349025000D01*
D14*
X11700000Y106925000D02*
X11700000Y196725000D01*
D15*
X9050000Y198725000D02*
X9050000Y248025000D01*
D17*
X30550000Y419925000D02*
X33450000Y422825000D01*
D14*
X208475000Y196775000D02*
X210875000Y196775000D01*
D15*
X201650000Y349025000D02*
X201650000Y300225000D01*
X271350000Y198825000D02*
X269750000Y198825000D01*
X174450000Y300225000D02*
X174450000Y349025000D01*
X73050000Y198725000D02*
X73050000Y247525000D01*
D14*
X131700000Y158725000D02*
X131675000Y158750000D01*
D15*
X172850000Y349025000D02*
X172850000Y300225000D01*
D14*
X54050000Y381250000D02*
X51650000Y381250000D01*
X174900000Y163325000D02*
X174900000Y159300000D01*
D15*
X259150000Y298725000D02*
X257550000Y298725000D01*
X18650000Y247550000D02*
X17050000Y247550000D01*
X100250000Y247525000D02*
X100250000Y198725000D01*
X272950000Y198825000D02*
X272950000Y247625000D01*
D14*
X16500000Y116525000D02*
X16475000Y116550000D01*
X138850000Y196800000D02*
X138850000Y156275000D01*
D15*
X262350000Y249925000D02*
X262350000Y298725000D01*
X23450000Y198725000D02*
X21850000Y198725000D01*
X101850000Y198725000D02*
X101850000Y247525000D01*
X185050000Y247525000D02*
X183450000Y247525000D01*
X254350000Y349125000D02*
X254350000Y300325000D01*
D14*
X6900000Y166975000D02*
X9300000Y166975000D01*
X254075000Y159550000D02*
X254100000Y159525000D01*
X37250000Y406200000D02*
X37375000Y406200000D01*
X90900000Y93725000D02*
X90900000Y159175000D01*
X234850000Y196775000D02*
X232475000Y196775000D01*
X21275000Y117750000D02*
X21300000Y117725000D01*
X39650000Y377050000D02*
X39700000Y377100000D01*
D15*
X248050000Y349125000D02*
X249650000Y349125000D01*
X213850000Y247525000D02*
X212250000Y247525000D01*
X166450000Y349025000D02*
X166450000Y300225000D01*
D14*
X239700000Y93525000D02*
X242100000Y93525000D01*
D15*
X57050000Y198725000D02*
X57050000Y247525000D01*
X39450000Y198725000D02*
X37850000Y198725000D01*
D14*
X112500000Y93725000D02*
X110100000Y93725000D01*
X18050000Y351025000D02*
X20450000Y351025000D01*
X50025000Y142650000D02*
X50025000Y196725000D01*
D15*
X74650000Y198725000D02*
X73050000Y198725000D01*
X102450000Y300225000D02*
X104050000Y300225000D01*
X91250000Y349025000D02*
X92850000Y349025000D01*
X173850000Y198725000D02*
X172250000Y198725000D01*
D14*
X232500000Y93525000D02*
X230100000Y93525000D01*
D15*
X106650000Y198725000D02*
X105050000Y198725000D01*
D14*
X227675000Y160575000D02*
X227700000Y160550000D01*
X51650000Y351025000D02*
X51650000Y377125000D01*
D15*
X65650000Y300225000D02*
X65650000Y349025000D01*
X192050000Y349025000D02*
X192050000Y300225000D01*
X56050000Y349025000D02*
X57650000Y349025000D01*
D14*
X59675000Y196825000D02*
X59675000Y157350000D01*
X105300000Y93725000D02*
X105300000Y161325000D01*
X230075000Y196775000D02*
X227675000Y196775000D01*
X86100000Y161175000D02*
X86100000Y163300000D01*
D15*
X172250000Y247525000D02*
X170650000Y247525000D01*
D14*
X293875000Y417125000D02*
X296275000Y417125000D01*
X25250000Y414625000D02*
X25250000Y396500000D01*
D15*
X226650000Y247625000D02*
X225050000Y247625000D01*
D14*
X191700000Y156150000D02*
X191700000Y163325000D01*
D17*
X16450000Y422625000D02*
X16450000Y427025000D01*
D14*
X6900000Y162125000D02*
X9300000Y162125000D01*
X131675000Y158750000D02*
X131675000Y196800000D01*
D15*
X239450000Y247625000D02*
X237850000Y247625000D01*
D14*
X256500000Y163125000D02*
X256500000Y155200000D01*
D15*
X158450000Y300225000D02*
X158450000Y349025000D01*
D14*
X266075000Y142675000D02*
X266075000Y196750000D01*
D15*
X186650000Y198725000D02*
X185050000Y198725000D01*
D14*
X100500000Y161125000D02*
X100500000Y163325000D01*
X305950000Y396675000D02*
X305975000Y396650000D01*
D15*
X36250000Y198725000D02*
X34650000Y198725000D01*
X256950000Y198825000D02*
X256950000Y247625000D01*
X137650000Y300225000D02*
X139250000Y300225000D01*
X258550000Y198825000D02*
X256950000Y198825000D01*
D14*
X35675000Y196825000D02*
X38075000Y196825000D01*
X194100000Y93725000D02*
X191700000Y93725000D01*
X186875000Y158175000D02*
X186900000Y158150000D01*
D15*
X233650000Y349125000D02*
X233650000Y300325000D01*
D14*
X182075000Y196750000D02*
X182075000Y159450000D01*
D15*
X95450000Y198725000D02*
X95450000Y247525000D01*
X211250000Y300225000D02*
X212850000Y300225000D01*
D14*
X8950000Y299525000D02*
X8950000Y296325000D01*
D15*
X284150000Y247625000D02*
X284150000Y198825000D01*
D14*
X217250000Y413940000D02*
X217250000Y351025000D01*
D15*
X253750000Y198825000D02*
X253750000Y247625000D01*
X88050000Y349025000D02*
X89650000Y349025000D01*
X108250000Y198725000D02*
X108250000Y247525000D01*
D14*
X6900000Y147725000D02*
X9300000Y147725000D01*
D15*
X277750000Y198825000D02*
X276150000Y198825000D01*
X25050000Y247550000D02*
X23450000Y247550000D01*
D14*
X124475000Y196800000D02*
X124475000Y160000000D01*
D15*
X235250000Y249925000D02*
X235250000Y298725000D01*
D14*
X66900000Y93725000D02*
X66900000Y162025000D01*
X88475000Y160625000D02*
X88500000Y160600000D01*
X177300000Y158400000D02*
X177300000Y163325000D01*
D15*
X205850000Y247525000D02*
X205850000Y198725000D01*
D14*
X239675000Y196775000D02*
X237275000Y196775000D01*
X126875000Y196800000D02*
X126875000Y159175000D01*
D15*
X197850000Y247525000D02*
X196250000Y247525000D01*
X287900000Y300475000D02*
X286300000Y300475000D01*
D14*
X74100000Y93725000D02*
X71700000Y93725000D01*
D15*
X52250000Y247525000D02*
X52250000Y198725000D01*
X268150000Y247625000D02*
X268150000Y198825000D01*
X302450000Y302225000D02*
X302400000Y302275000D01*
D14*
X114900000Y93725000D02*
X114900000Y156325000D01*
X184500000Y159850000D02*
X184500000Y93725000D01*
D15*
X203250000Y349025000D02*
X204850000Y349025000D01*
X116250000Y198725000D02*
X114650000Y198725000D01*
D14*
X9300000Y138125000D02*
X9300000Y135725000D01*
X256475000Y155225000D02*
X256500000Y155200000D01*
D15*
X228250000Y247625000D02*
X228250000Y198825000D01*
X144050000Y300225000D02*
X145650000Y300225000D01*
X97050000Y198725000D02*
X95450000Y198725000D01*
D14*
X66050000Y417225000D02*
X63650000Y417225000D01*
D15*
X51250000Y349025000D02*
X51250000Y300225000D01*
D14*
X62100000Y93725000D02*
X62100000Y196775000D01*
X54025000Y417050000D02*
X54025000Y393800000D01*
X256500000Y93525000D02*
X254100000Y93525000D01*
D15*
X272950000Y247625000D02*
X271350000Y247625000D01*
X137050000Y198725000D02*
X137050000Y247525000D01*
D14*
X179700000Y93725000D02*
X177300000Y93725000D01*
X6900000Y121325000D02*
X6900000Y118925000D01*
X277125000Y375175000D02*
X277125000Y351150000D01*
D15*
X273550000Y249925000D02*
X271950000Y249925000D01*
X89650000Y300225000D02*
X91250000Y300225000D01*
X188250000Y198725000D02*
X188250000Y247525000D01*
D14*
X131675000Y196800000D02*
X134075000Y196800000D01*
X251675000Y196750000D02*
X254075000Y196750000D01*
X274500000Y137200000D02*
X275675000Y136025000D01*
X201300000Y161150000D02*
X201300000Y163325000D01*
D15*
X111450000Y198725000D02*
X111450000Y247525000D01*
X111450000Y247525000D02*
X109850000Y247525000D01*
X105650000Y300225000D02*
X107250000Y300225000D01*
X79450000Y198725000D02*
X79450000Y247525000D01*
X254350000Y249925000D02*
X252750000Y249925000D01*
D14*
X7050000Y245025000D02*
X7050000Y240200000D01*
X52475000Y137325000D02*
X52475000Y134925000D01*
X256500000Y155200000D02*
X256500000Y93525000D01*
D15*
X12250000Y247525000D02*
X10650000Y247525000D01*
D14*
X9300000Y157325000D02*
X9300000Y154925000D01*
D15*
X45850000Y247525000D02*
X45850000Y198725000D01*
D14*
X42850000Y196825000D02*
X42850000Y142700000D01*
D15*
X61850000Y247525000D02*
X61850000Y198725000D01*
D14*
X246875000Y158125000D02*
X246900000Y158100000D01*
D15*
X300800000Y300425000D02*
X300800000Y349225000D01*
X208050000Y349025000D02*
X208050000Y300225000D01*
D14*
X141300000Y155450000D02*
X141300000Y93725000D01*
D15*
X196250000Y247525000D02*
X196250000Y198725000D01*
X68850000Y349025000D02*
X70450000Y349025000D01*
X296000000Y349225000D02*
X296000000Y300425000D01*
X131250000Y300225000D02*
X132850000Y300225000D01*
X299200000Y300425000D02*
X300800000Y300425000D01*
D14*
X9250000Y183925000D02*
X6850000Y183925000D01*
D15*
X162650000Y198725000D02*
X162650000Y247525000D01*
D14*
X8950000Y296325000D02*
X8450000Y295825000D01*
D15*
X133850000Y198700000D02*
X133850000Y247500000D01*
D14*
X150900000Y156850000D02*
X150875000Y156875000D01*
X277400000Y385000000D02*
X277400000Y383000000D01*
D15*
X227250000Y249925000D02*
X225650000Y249925000D01*
X155250000Y300225000D02*
X155250000Y349025000D01*
D14*
X200425000Y351075000D02*
X200425000Y417075000D01*
X114875000Y196800000D02*
X114900000Y196775000D01*
D15*
X217650000Y300225000D02*
X219250000Y300225000D01*
X215450000Y247525000D02*
X215450000Y198725000D01*
X172850000Y300225000D02*
X174450000Y300225000D01*
X98650000Y198725000D02*
X98650000Y247525000D01*
D14*
X110075000Y196800000D02*
X110075000Y159775000D01*
D15*
X199450000Y198725000D02*
X197850000Y198725000D01*
D14*
X49250000Y393150000D02*
X51625000Y390775000D01*
X131700000Y158725000D02*
X131700000Y93725000D01*
X174875000Y196775000D02*
X177275000Y196775000D01*
X198050000Y351025000D02*
X195650000Y351025000D01*
D15*
X228250000Y198825000D02*
X226650000Y198825000D01*
D14*
X262700000Y376375000D02*
X264500000Y378175000D01*
D15*
X181850000Y198725000D02*
X181850000Y247525000D01*
X59250000Y300225000D02*
X59250000Y349025000D01*
X92850000Y300225000D02*
X94450000Y300225000D01*
D14*
X6850000Y191325000D02*
X9250000Y191325000D01*
X6900000Y123725000D02*
X9300000Y123725000D01*
X14100000Y196725000D02*
X14100000Y104525000D01*
D15*
X38450000Y349025000D02*
X38450000Y300225000D01*
D14*
X6900000Y171775000D02*
X9300000Y171775000D01*
D15*
X196850000Y349025000D02*
X198450000Y349025000D01*
X19250000Y349025000D02*
X19250000Y300225000D01*
X295450000Y198625000D02*
X297050000Y198625000D01*
D14*
X6900000Y154925000D02*
X6900000Y152525000D01*
D15*
X77850000Y198725000D02*
X76250000Y198725000D01*
X130650000Y198700000D02*
X130650000Y247500000D01*
D14*
X297275000Y196725000D02*
X297275000Y103517500D01*
X268475000Y196750000D02*
X268475000Y142675000D01*
X268475000Y196750000D02*
X266075000Y196750000D01*
X194075000Y158800000D02*
X194100000Y158775000D01*
X203675000Y160325000D02*
X203700000Y160300000D01*
D15*
X26650000Y247525000D02*
X26650000Y198725000D01*
D14*
X222900000Y163125000D02*
X222900000Y160575000D01*
X275400000Y387000000D02*
X275400000Y385000000D01*
X216900000Y93725000D02*
X215700000Y93725000D01*
X224450000Y408010000D02*
X224450000Y351125000D01*
D15*
X105050000Y247525000D02*
X103450000Y247525000D01*
D14*
X218100000Y159200000D02*
X218100000Y93525000D01*
D15*
X102450000Y349025000D02*
X102450000Y300225000D01*
X270350000Y300325000D02*
X271950000Y300325000D01*
X132850000Y349025000D02*
X134450000Y349025000D01*
X244850000Y300325000D02*
X244850000Y349125000D01*
D14*
X198875000Y196775000D02*
X201275000Y196775000D01*
D15*
X246450000Y298725000D02*
X246450000Y249925000D01*
X281550000Y300325000D02*
X281550000Y349125000D01*
D14*
X119700000Y160225000D02*
X119700000Y163325000D01*
X182075000Y159450000D02*
X182100000Y159425000D01*
D15*
X211250000Y349025000D02*
X211250000Y300225000D01*
D14*
X134100000Y156625000D02*
X134100000Y163325000D01*
X88475000Y196800000D02*
X90875000Y196800000D01*
X40475000Y142750000D02*
X40475000Y196825000D01*
X191675000Y156175000D02*
X191700000Y156150000D01*
D15*
X251250000Y298725000D02*
X249650000Y298725000D01*
X136050000Y349025000D02*
X137650000Y349025000D01*
D14*
X98075000Y196800000D02*
X100475000Y196800000D01*
X273894600Y122116800D02*
X275037600Y122116800D01*
X278050000Y196750000D02*
X278100000Y196700000D01*
D15*
X297050000Y247425000D02*
X298650000Y247425000D01*
X108850000Y300225000D02*
X110450000Y300225000D01*
X276750000Y349125000D02*
X276750000Y300325000D01*
D14*
X232475000Y196775000D02*
X232475000Y93550000D01*
X155675000Y196800000D02*
X158075000Y196800000D01*
D15*
X116850000Y349025000D02*
X118450000Y349025000D01*
X145650000Y349025000D02*
X147250000Y349025000D01*
X301850000Y198625000D02*
X303450000Y198625000D01*
D14*
X174900000Y159300000D02*
X174900000Y93725000D01*
X272325000Y351150000D02*
X272350000Y351125000D01*
D15*
X13850000Y247525000D02*
X13850000Y198725000D01*
X263950000Y349125000D02*
X263950000Y300325000D01*
X68250000Y198725000D02*
X66650000Y198725000D01*
X24050000Y300225000D02*
X24050000Y349025000D01*
D14*
X220500000Y93525000D02*
X220500000Y160200000D01*
X35675000Y134100000D02*
X35675000Y131700000D01*
D15*
X25050000Y198725000D02*
X25050000Y247550000D01*
D14*
X177275000Y158425000D02*
X177300000Y158400000D01*
D15*
X101850000Y247525000D02*
X100250000Y247525000D01*
X75250000Y300225000D02*
X75250000Y349025000D01*
X233050000Y198825000D02*
X233050000Y247625000D01*
X300850000Y298525000D02*
X299250000Y298525000D01*
X224050000Y298725000D02*
X224050000Y249925000D01*
D14*
X277125000Y375175000D02*
X274725000Y375175000D01*
X45200000Y196750000D02*
X45275000Y196825000D01*
X225275000Y196775000D02*
X225275000Y161575000D01*
D15*
X57650000Y300225000D02*
X59250000Y300225000D01*
X60250000Y198725000D02*
X60250000Y247525000D01*
X225650000Y300325000D02*
X225650000Y349125000D01*
X245850000Y247625000D02*
X244250000Y247625000D01*
X275150000Y300325000D02*
X275150000Y349125000D01*
D14*
X39700000Y377100000D02*
X42100000Y377100000D01*
X272100000Y140325000D02*
X272100000Y137925000D01*
D15*
X233050000Y247625000D02*
X231450000Y247625000D01*
D14*
X21300000Y97325000D02*
X21300000Y105725000D01*
D15*
X116250000Y247525000D02*
X116250000Y198725000D01*
X244250000Y247625000D02*
X244250000Y198825000D01*
X204850000Y300225000D02*
X206450000Y300225000D01*
D14*
X20450000Y414625000D02*
X22850000Y417025000D01*
D15*
X238450000Y249925000D02*
X238450000Y298725000D01*
X292250000Y198625000D02*
X293850000Y198625000D01*
X267150000Y300325000D02*
X268750000Y300325000D01*
X117850000Y198725000D02*
X117850000Y247525000D01*
D14*
X107675000Y196800000D02*
X107675000Y162075000D01*
D15*
X83250000Y300225000D02*
X84850000Y300225000D01*
X62450000Y349025000D02*
X64050000Y349025000D01*
D14*
X275400000Y382975000D02*
X275400000Y380575000D01*
D15*
X105050000Y198725000D02*
X105050000Y247525000D01*
X209650000Y349025000D02*
X211250000Y349025000D01*
D14*
X83675000Y160000000D02*
X83675000Y196800000D01*
X124500000Y93725000D02*
X124500000Y159975000D01*
X6850000Y188925000D02*
X6850000Y186525000D01*
D15*
X234650000Y247625000D02*
X234650000Y198825000D01*
D14*
X54875000Y138250000D02*
X52550000Y140575000D01*
X189300000Y163325000D02*
X189300000Y161175000D01*
D15*
X255950000Y349125000D02*
X257550000Y349125000D01*
D14*
X6900000Y128525000D02*
X9300000Y128525000D01*
D15*
X142450000Y349025000D02*
X144050000Y349025000D01*
D16*
X20950000Y422525000D02*
X16450000Y427025000D01*
D14*
X290100000Y163100000D02*
X290100000Y157825000D01*
X278050000Y128275000D02*
X278050000Y196750000D01*
D15*
X177050000Y198725000D02*
X175450000Y198725000D01*
X304050000Y347575000D02*
X302400000Y349225000D01*
X85850000Y198725000D02*
X85850000Y247525000D01*
D14*
X208500000Y159400000D02*
X208475000Y159425000D01*
D15*
X63450000Y198725000D02*
X63450000Y247525000D01*
X193650000Y349025000D02*
X195250000Y349025000D01*
X27250000Y300225000D02*
X27250000Y349025000D01*
D14*
X210900000Y93725000D02*
X213300000Y93725000D01*
X54025000Y393800000D02*
X54050000Y393775000D01*
X134075000Y156650000D02*
X134100000Y156625000D01*
X186900000Y158150000D02*
X186900000Y163325000D01*
D15*
X233650000Y298725000D02*
X233650000Y249925000D01*
D14*
X241250000Y351125000D02*
X241250000Y417125000D01*
X299675000Y196725000D02*
X302075000Y196725000D01*
X119675000Y196800000D02*
X117275000Y196800000D01*
D15*
X9050000Y248025000D02*
X8450000Y248625000D01*
D14*
X179675000Y196775000D02*
X179675000Y160400000D01*
D15*
X204250000Y247525000D02*
X202650000Y247525000D01*
X122650000Y247525000D02*
X122650000Y198725000D01*
X192050000Y300225000D02*
X193650000Y300225000D01*
D14*
X131700000Y93725000D02*
X129300000Y93725000D01*
D15*
X249650000Y300325000D02*
X251250000Y300325000D01*
D14*
X184500000Y93725000D02*
X182100000Y93725000D01*
X18875000Y196825000D02*
X18900000Y196800000D01*
X138900000Y156225000D02*
X138900000Y163325000D01*
D15*
X249650000Y349125000D02*
X249650000Y300325000D01*
X206450000Y349025000D02*
X208050000Y349025000D01*
D14*
X95675000Y157650000D02*
X95700000Y157625000D01*
D15*
X285850000Y198625000D02*
X287450000Y198625000D01*
D14*
X64475000Y196825000D02*
X64475000Y159475000D01*
D15*
X231450000Y198825000D02*
X229850000Y198825000D01*
D14*
X210875000Y196775000D02*
X210900000Y196750000D01*
D15*
X296050000Y298525000D02*
X296050000Y249725000D01*
D14*
X256475000Y196775000D02*
X256475000Y155225000D01*
X277125000Y351150000D02*
X277150000Y351125000D01*
D15*
X73650000Y349025000D02*
X73650000Y300225000D01*
D14*
X74075000Y196800000D02*
X76475000Y196800000D01*
D15*
X284750000Y300325000D02*
X284750000Y349125000D01*
X225650000Y298725000D02*
X224050000Y298725000D01*
X97650000Y300225000D02*
X97650000Y349025000D01*
D14*
X35675000Y140650000D02*
X35675000Y196825000D01*
X239700000Y93525000D02*
X239700000Y196750000D01*
D15*
X71450000Y198725000D02*
X69850000Y198725000D01*
X248050000Y298725000D02*
X246450000Y298725000D01*
D14*
X6900000Y164575000D02*
X6900000Y162175000D01*
X207625000Y417075000D02*
X207625000Y351075000D01*
X205225000Y351075000D02*
X205225000Y417075000D01*
D15*
X246450000Y349125000D02*
X246450000Y300325000D01*
X134450000Y349025000D02*
X134450000Y300225000D01*
X299200000Y349225000D02*
X299200000Y300425000D01*
D14*
X155675000Y124700000D02*
X155675000Y196800000D01*
D15*
X215450000Y198725000D02*
X213850000Y198725000D01*
X84850000Y349025000D02*
X86450000Y349025000D01*
X33650000Y349025000D02*
X35250000Y349025000D01*
D14*
X293950000Y351125000D02*
X291550000Y351125000D01*
X122100000Y93725000D02*
X119700000Y93725000D01*
X98100000Y163325000D02*
X98100000Y158500000D01*
X58850000Y351025000D02*
X58850000Y417200000D01*
X52550000Y140575000D02*
X50150000Y140575000D01*
X305975000Y198175000D02*
X305975000Y396650000D01*
X250850000Y351125000D02*
X250850000Y417125000D01*
D15*
X198450000Y349025000D02*
X198450000Y300225000D01*
X34650000Y198725000D02*
X34650000Y247525000D01*
D14*
X296350000Y351125000D02*
X296300000Y351175000D01*
X44450000Y417025000D02*
X46850000Y417025000D01*
D15*
X120050000Y300225000D02*
X120050000Y349025000D01*
X291250000Y298525000D02*
X289650000Y298525000D01*
D14*
X269950000Y375175000D02*
X269925000Y375200000D01*
D15*
X150450000Y349025000D02*
X150450000Y300225000D01*
D14*
X277425000Y389000000D02*
X277425000Y387000000D01*
D15*
X120050000Y349025000D02*
X121650000Y349025000D01*
D14*
X88500000Y163325000D02*
X88500000Y160600000D01*
X263675000Y196750000D02*
X263675000Y142675000D01*
X9250000Y188925000D02*
X6850000Y188925000D01*
D15*
X268750000Y249925000D02*
X268750000Y298725000D01*
D14*
X287700000Y153500000D02*
X287700000Y163100000D01*
X296275000Y417125000D02*
X296300000Y417100000D01*
D15*
X186650000Y247525000D02*
X186650000Y198725000D01*
D14*
X107675000Y162075000D02*
X107700000Y162050000D01*
X212450000Y351025000D02*
X210050000Y351025000D01*
D15*
X103450000Y247525000D02*
X103450000Y198725000D01*
X235250000Y298725000D02*
X233650000Y298725000D01*
X97650000Y349025000D02*
X99250000Y349025000D01*
X284750000Y298725000D02*
X283150000Y298725000D01*
D14*
X162875000Y122725000D02*
X162875000Y196775000D01*
D15*
X256950000Y247625000D02*
X255350000Y247625000D01*
D14*
X25250000Y351025000D02*
X25250000Y390650000D01*
D15*
X117850000Y247525000D02*
X116250000Y247525000D01*
X212850000Y349025000D02*
X214450000Y349025000D01*
D14*
X83675000Y196800000D02*
X86050000Y196800000D01*
X269500000Y137925000D02*
X267100000Y137925000D01*
X126900000Y159150000D02*
X126900000Y93725000D01*
X290100000Y157825000D02*
X290075000Y157850000D01*
D15*
X43250000Y349025000D02*
X44850000Y349025000D01*
X228850000Y249925000D02*
X228850000Y298725000D01*
X48050000Y349025000D02*
X48050000Y300225000D01*
X244850000Y349125000D02*
X246450000Y349125000D01*
D14*
X6900000Y152525000D02*
X9300000Y152525000D01*
X208475000Y159425000D02*
X208475000Y196775000D01*
D15*
X252850000Y300325000D02*
X254450000Y300325000D01*
X263350000Y198825000D02*
X263350000Y247625000D01*
D14*
X90875000Y159200000D02*
X90900000Y159175000D01*
X54050000Y351025000D02*
X51650000Y351025000D01*
D15*
X100850000Y349025000D02*
X102450000Y349025000D01*
X304050000Y248050000D02*
X304050000Y347575000D01*
D14*
X287675000Y196750000D02*
X287675000Y153525000D01*
X279550000Y383900000D02*
X279550000Y351125000D01*
X229250000Y351125000D02*
X231650000Y351125000D01*
D15*
X179250000Y300225000D02*
X180850000Y300225000D01*
D14*
X129300000Y157700000D02*
X129300000Y163325000D01*
X141300000Y163325000D02*
X141300000Y155450000D01*
D15*
X265550000Y249925000D02*
X265550000Y298725000D01*
X33050000Y247525000D02*
X33050000Y198725000D01*
X86450000Y300225000D02*
X88050000Y300225000D01*
D14*
X6900000Y130925000D02*
X6900000Y128525000D01*
D15*
X297600000Y300425000D02*
X297600000Y349225000D01*
D14*
X42100000Y377100000D02*
X42100000Y351075000D01*
D15*
X260750000Y298725000D02*
X260750000Y249925000D01*
X188850000Y300225000D02*
X190450000Y300225000D01*
D14*
X138900000Y93725000D02*
X138900000Y156225000D01*
X6900000Y159725000D02*
X6900000Y157325000D01*
D15*
X146650000Y198725000D02*
X146650000Y247525000D01*
X260750000Y249925000D02*
X259150000Y249925000D01*
D14*
X143700000Y159625000D02*
X143700000Y163325000D01*
D15*
X40050000Y349025000D02*
X41650000Y349025000D01*
D14*
X9300000Y162125000D02*
X9300000Y159725000D01*
X30875000Y196825000D02*
X33275000Y196825000D01*
D15*
X56050000Y300225000D02*
X56050000Y349025000D01*
X207450000Y247525000D02*
X205850000Y247525000D01*
X188250000Y247525000D02*
X186650000Y247525000D01*
X183450000Y247525000D02*
X183450000Y198725000D01*
D14*
X117300000Y158400000D02*
X117300000Y93725000D01*
X71675000Y196800000D02*
X69275000Y196800000D01*
D15*
X240050000Y298725000D02*
X240050000Y249925000D01*
D14*
X194075000Y196775000D02*
X196475000Y196775000D01*
D15*
X72050000Y349025000D02*
X73650000Y349025000D01*
D14*
X46900000Y377125000D02*
X44500000Y377125000D01*
X129275000Y157725000D02*
X129300000Y157700000D01*
X129300000Y93725000D02*
X129300000Y157700000D01*
X49250000Y417025000D02*
X51650000Y417025000D01*
D15*
X66650000Y247525000D02*
X65050000Y247525000D01*
D14*
X9300000Y169375000D02*
X6900000Y169375000D01*
X290075000Y157850000D02*
X290075000Y196725000D01*
X284275000Y417125000D02*
X284300000Y417100000D01*
X9300000Y171775000D02*
X9300000Y169375000D01*
D15*
X130650000Y247500000D02*
X129050000Y247500000D01*
D14*
X64475000Y159475000D02*
X64500000Y159450000D01*
D15*
X294400000Y300425000D02*
X294400000Y349225000D01*
D14*
X267100000Y137925000D02*
X267100000Y140325000D01*
X230100000Y93525000D02*
X230100000Y144000000D01*
D15*
X289650000Y298525000D02*
X289650000Y249725000D01*
X163250000Y300225000D02*
X164850000Y300225000D01*
D14*
X37250000Y417025000D02*
X37250000Y406200000D01*
D15*
X222450000Y298725000D02*
X220850000Y298725000D01*
X33050000Y198725000D02*
X31450000Y198725000D01*
X228850000Y300325000D02*
X228850000Y349125000D01*
D14*
X38075000Y142750000D02*
X37975000Y142650000D01*
X207650000Y351025000D02*
X205250000Y351025000D01*
X285275000Y196725000D02*
X287675000Y196725000D01*
X6900000Y241325000D02*
X6900000Y240050000D01*
D15*
X294400000Y349225000D02*
X296000000Y349225000D01*
D14*
X9300000Y128525000D02*
X9300000Y126125000D01*
X25225000Y396475000D02*
X27625000Y396475000D01*
D15*
X254450000Y298725000D02*
X252850000Y298725000D01*
X244850000Y298725000D02*
X243250000Y298725000D01*
D14*
X27650000Y404675000D02*
X27650000Y417025000D01*
X285275000Y196750000D02*
X287675000Y196750000D01*
X49250000Y351025000D02*
X46850000Y351025000D01*
X15650000Y303025000D02*
X15650000Y412225000D01*
D15*
X230450000Y300325000D02*
X232050000Y300325000D01*
X195250000Y300225000D02*
X196850000Y300225000D01*
D14*
X90900000Y159175000D02*
X90900000Y163325000D01*
X61250000Y351025000D02*
X61250000Y417150000D01*
X194100000Y158775000D02*
X194100000Y93725000D01*
X227700000Y163125000D02*
X227700000Y160550000D01*
X273539000Y118764000D02*
X273539000Y121761200D01*
D15*
X297600000Y349225000D02*
X299200000Y349225000D01*
X49650000Y349025000D02*
X51250000Y349025000D01*
X118450000Y349025000D02*
X118450000Y300225000D01*
D14*
X102875000Y161275000D02*
X102900000Y161250000D01*
D15*
X67250000Y300225000D02*
X68850000Y300225000D01*
X234650000Y198825000D02*
X233050000Y198825000D01*
D14*
X56450000Y417025000D02*
X56450000Y351025000D01*
D15*
X121650000Y300225000D02*
X123250000Y300225000D01*
D14*
X112500000Y163325000D02*
X112500000Y151375000D01*
D15*
X110450000Y300225000D02*
X110450000Y349025000D01*
D14*
X251700000Y158700000D02*
X251700000Y93525000D01*
X54900000Y196800000D02*
X54875000Y196825000D01*
X129275000Y196800000D02*
X129275000Y157725000D01*
D15*
X78450000Y349025000D02*
X80050000Y349025000D01*
X43250000Y300225000D02*
X43250000Y349025000D01*
X214450000Y300225000D02*
X216050000Y300225000D01*
D14*
X189275000Y161200000D02*
X189300000Y161175000D01*
X158075000Y196800000D02*
X158075000Y124750000D01*
X64475000Y196825000D02*
X66875000Y196825000D01*
D15*
X177650000Y300225000D02*
X177650000Y349025000D01*
D17*
X12500000Y413875000D02*
X18550000Y419925000D01*
D14*
X201275000Y196775000D02*
X201275000Y161175000D01*
X114900000Y156325000D02*
X114900000Y163325000D01*
X105300000Y161325000D02*
X105300000Y163325000D01*
X6900000Y138125000D02*
X9300000Y138125000D01*
X172475000Y161625000D02*
X172500000Y161600000D01*
D15*
X249050000Y247625000D02*
X247450000Y247625000D01*
X260750000Y349125000D02*
X260750000Y300325000D01*
X54450000Y349025000D02*
X54450000Y300225000D01*
X293850000Y198625000D02*
X293850000Y247425000D01*
D14*
X6900000Y181375000D02*
X9300000Y181375000D01*
X21300000Y117725000D02*
X21300000Y105725000D01*
D15*
X52250000Y198725000D02*
X50650000Y198725000D01*
X91250000Y300225000D02*
X91250000Y349025000D01*
D14*
X74100000Y160450000D02*
X74100000Y93725000D01*
X201300000Y93725000D02*
X201300000Y161150000D01*
D15*
X146650000Y247525000D02*
X145050000Y247525000D01*
X26650000Y198725000D02*
X25050000Y198725000D01*
D14*
X210025000Y417075000D02*
X207625000Y417075000D01*
X198900000Y159675000D02*
X198900000Y93725000D01*
D15*
X55450000Y198725000D02*
X53850000Y198725000D01*
X20250000Y198725000D02*
X18650000Y198725000D01*
X223450000Y247625000D02*
X221850000Y247625000D01*
X187250000Y300225000D02*
X187250000Y349025000D01*
X224050000Y349125000D02*
X224050000Y300325000D01*
X241650000Y300325000D02*
X241650000Y349125000D01*
D14*
X100475000Y161150000D02*
X100500000Y161125000D01*
X66875000Y196825000D02*
X66875000Y162050000D01*
D15*
X81650000Y349025000D02*
X83250000Y349025000D01*
D14*
X160475000Y124750000D02*
X160475000Y196775000D01*
D15*
X32050000Y249825000D02*
X30450000Y249825000D01*
X292800000Y349225000D02*
X292800000Y300425000D01*
D14*
X208500000Y163325000D02*
X208500000Y159400000D01*
D15*
X292850000Y249725000D02*
X291250000Y249725000D01*
D14*
X272350000Y394525000D02*
X272350000Y417125000D01*
D15*
X271350000Y247625000D02*
X271350000Y198825000D01*
X22450000Y300225000D02*
X24050000Y300225000D01*
D14*
X265175000Y417100000D02*
X265150000Y417075000D01*
X257950000Y351125000D02*
X257950000Y417125000D01*
D15*
X247450000Y198825000D02*
X245850000Y198825000D01*
X161050000Y198725000D02*
X159450000Y198725000D01*
X21850000Y198725000D02*
X21850000Y247550000D01*
X143450000Y198725000D02*
X143450000Y247525000D01*
X87450000Y247525000D02*
X87450000Y198725000D01*
X35250000Y300225000D02*
X36850000Y300225000D01*
D14*
X8450000Y246425000D02*
X8450000Y248625000D01*
X21275000Y196825000D02*
X21275000Y117750000D01*
D15*
X25650000Y300225000D02*
X27250000Y300225000D01*
D14*
X222875000Y196775000D02*
X225275000Y196775000D01*
D15*
X185050000Y198725000D02*
X185050000Y247525000D01*
X241050000Y247625000D02*
X241050000Y198825000D01*
D14*
X112475000Y196800000D02*
X114875000Y196800000D01*
D15*
X240050000Y249925000D02*
X238450000Y249925000D01*
X55450000Y247525000D02*
X55450000Y198725000D01*
X135450000Y198725000D02*
X133850000Y198725000D01*
X151450000Y247525000D02*
X151450000Y198725000D01*
X200050000Y349025000D02*
X201650000Y349025000D01*
D14*
X107700000Y93725000D02*
X105300000Y93725000D01*
D15*
X201050000Y247525000D02*
X199450000Y247525000D01*
D14*
X126900000Y93725000D02*
X124500000Y93725000D01*
X239700000Y196750000D02*
X239675000Y196775000D01*
X143675000Y196800000D02*
X143675000Y159650000D01*
X206075000Y161250000D02*
X206100000Y161225000D01*
X246050000Y417125000D02*
X248450000Y417125000D01*
D15*
X296050000Y249725000D02*
X294450000Y249725000D01*
D14*
X293875000Y351200000D02*
X293950000Y351125000D01*
D15*
X236850000Y249925000D02*
X235250000Y249925000D01*
D14*
X134075000Y196800000D02*
X134075000Y156650000D01*
D15*
X292850000Y298525000D02*
X292850000Y249725000D01*
X171250000Y300225000D02*
X171250000Y349025000D01*
X255350000Y247625000D02*
X255350000Y198825000D01*
X57050000Y247525000D02*
X55450000Y247525000D01*
D14*
X95700000Y93725000D02*
X95700000Y157625000D01*
X59700000Y93725000D02*
X59700000Y157325000D01*
D15*
X22450000Y349025000D02*
X22450000Y300225000D01*
D14*
X141300000Y93725000D02*
X138900000Y93725000D01*
D15*
X41650000Y249825000D02*
X40050000Y249825000D01*
D14*
X52450000Y142675000D02*
X52475000Y142650000D01*
X274775000Y417100000D02*
X274750000Y417125000D01*
X117300000Y163325000D02*
X117300000Y158400000D01*
D15*
X251250000Y349125000D02*
X252850000Y349125000D01*
X225050000Y198825000D02*
X223450000Y198825000D01*
D14*
X167700000Y93725000D02*
X167700000Y160925000D01*
X119700000Y93725000D02*
X119700000Y160225000D01*
X100500000Y93725000D02*
X100500000Y161125000D01*
%TD*%
M02*
